<svg width="14" height="10" viewBox="0 0 14 10" fill="none" xmlns="http://www.w3.org/2000/svg">
<path d="M2.27053 8.2143H1.27863C0.76265 8.21306 0.344989 7.79499 0.34375 7.27942V1.50653C0.34375 0.906686 0.829162 0.417969 1.43231 0.417969H1.43768C2.03959 0.422926 2.52418 0.913708 2.52211 1.51562V5.38115C2.52211 5.51913 2.41016 5.63109 2.27218 5.63109C2.1342 5.63109 2.02224 5.51913 2.02224 5.38115V1.51562C2.02431 1.18884 1.76157 0.921558 1.43479 0.918253H1.43273C1.1076 0.918253 0.844447 1.18182 0.844447 1.50653V7.27942C0.844447 7.51944 1.03944 7.71443 1.27946 7.71443H2.27135C2.40933 7.71443 2.52129 7.82639 2.52129 7.96437C2.52129 8.10235 2.40851 8.2143 2.27053 8.2143Z" fill="#828282"/>
<path d="M13.4062 8.21444H1.27874C1.14076 8.21444 1.02881 8.10248 1.02881 7.9645C1.02881 7.82652 1.14076 7.71457 1.27874 7.71457H13.1563C13.1542 5.70351 13.1616 5.80514 13.1501 5.76011C13.1104 5.62791 13.1852 5.48828 13.3174 5.44862C13.4558 5.4069 13.5995 5.49076 13.6326 5.62998C13.6747 5.78366 13.6483 5.69153 13.6561 7.9645C13.6561 8.10289 13.5442 8.21444 13.4062 8.21444ZM5.67637 5.63122H2.27022C2.13224 5.63122 2.02029 5.51926 2.02029 5.38128C2.02029 5.2433 2.13224 5.13135 2.27022 5.13135H5.67637C5.81435 5.13135 5.9263 5.2433 5.9263 5.38128C5.9263 5.51926 5.81476 5.63122 5.67637 5.63122Z" fill="#828282"/>
<path d="M4.72919 5.63094C4.59121 5.63094 4.47926 5.51899 4.47926 5.38101C4.47843 4.499 3.76333 3.7839 2.88132 3.78307H2.27032C2.13234 3.78307 2.02039 3.67112 2.02039 3.53314C2.02039 3.39516 2.13234 3.2832 2.27032 3.2832H2.88132C4.0397 3.28444 4.97789 4.22304 4.97954 5.38142C4.97954 5.51899 4.86759 5.63094 4.72919 5.63094ZM13.4059 6.92235H5.67605C5.53807 6.92235 5.42612 6.81039 5.42612 6.67241V3.83678C5.42612 3.6988 5.53807 3.58684 5.67605 3.58684H11.2936C12.5974 3.5885 13.6542 4.64525 13.6558 5.94904V6.67241C13.6558 6.81039 13.5439 6.92235 13.4059 6.92235ZM5.9264 6.42247H13.1559V5.94904C13.1551 4.92121 12.3219 4.08795 11.2936 4.08671H5.9264V6.42247ZM2.52356 9.58158H1.50482C1.36684 9.58158 1.25488 9.46962 1.25488 9.33164V7.96464C1.25488 7.82666 1.36684 7.7147 1.50482 7.7147C1.6428 7.7147 1.75475 7.82666 1.75475 7.96464V9.08171H2.35088L2.81192 7.87499C2.86108 7.74569 3.00567 7.68041 3.13539 7.72958C3.26469 7.77874 3.32997 7.92333 3.28081 8.05305L2.75945 9.42046C2.72269 9.51796 2.62808 9.5824 2.52356 9.58158ZM12.4941 9.58158H11.4758C11.3721 9.58158 11.2792 9.51754 11.2424 9.42046L10.721 8.05305C10.6801 7.92126 10.7541 7.78121 10.8859 7.74032C11.0057 7.70314 11.1346 7.76056 11.187 7.87458L11.6468 9.08088H12.243V7.96423C12.243 7.82624 12.3549 7.71429 12.4929 7.71429C12.6309 7.71429 12.7428 7.82624 12.7428 7.96423V9.33123C12.7432 9.46921 12.6317 9.58075 12.4941 9.58158Z" fill="#828282"/>
</svg>
