<svg width="11" height="14" viewBox="0 0 11 14" fill="none" xmlns="http://www.w3.org/2000/svg">
<path d="M2.77994 13.6561C2.67253 13.6561 2.5771 13.5871 2.54323 13.4851C1.51994 10.4115 1.50672 9.55265 1.73062 7.69569C1.74715 7.55854 1.87191 7.46105 2.00907 7.47757C2.14622 7.49409 2.24372 7.61886 2.22719 7.75601C2.00039 9.62701 2.04831 10.419 3.01666 13.3273C3.07077 13.4897 2.94932 13.6566 2.77911 13.6566L2.77994 13.6561ZM3.86148 13.4731C3.54503 12.3317 3.25213 11.0043 2.99146 9.53158C2.99146 9.53076 2.64609 7.3367 2.64568 7.29869C2.64526 7.16071 2.75722 7.04834 2.8952 7.04834C3.02079 7.04793 3.12696 7.14088 3.14348 7.26523C3.15753 7.35611 3.47315 9.38038 3.4843 9.44566C3.74209 10.9027 4.03127 12.2131 4.34359 13.3393C4.38035 13.4723 4.30269 13.6103 4.16966 13.6471C4.03747 13.6838 3.89866 13.6074 3.86148 13.4731Z" fill="#828282"/>
<path d="M4.07877 10.0793L3.14802 9.71861C3.0183 9.67151 2.95138 9.52775 2.99847 9.39803C3.04722 9.26418 3.19718 9.19849 3.32814 9.2522L4.01267 9.51783L4.38324 8.38879C4.4262 8.25742 4.5679 8.18636 4.69886 8.22932C4.83023 8.27229 4.90129 8.41357 4.85832 8.54494L4.40596 9.92434C4.38448 9.98961 4.33738 10.0429 4.27542 10.0722C4.21262 10.102 4.14115 10.1032 4.07877 10.0793Z" fill="#828282"/>
<path d="M4.10308 13.6563C3.9651 13.6563 3.85315 13.5443 3.85315 13.4063C3.85315 13.3506 3.83001 13.4886 4.42862 10.8752L3.94651 9.96425C3.87793 9.84445 3.91966 9.6916 4.03987 9.62302C4.16464 9.55196 4.3241 9.6003 4.38772 9.72919L4.91362 10.7223C4.94171 10.7756 4.94956 10.8368 4.93592 10.8954L4.34723 13.4584C4.32286 13.5737 4.22082 13.6563 4.10308 13.6563ZM7.62077 13.6563C7.44974 13.6567 7.32952 13.4886 7.38323 13.327C8.37553 10.3435 8.34992 9.5594 8.12766 7.72682C8.11114 7.58966 8.20863 7.4649 8.34579 7.44838C8.48294 7.43185 8.6077 7.52935 8.62423 7.6665C8.86012 9.61476 8.85268 10.4955 7.85748 13.4848C7.82361 13.5873 7.72859 13.6563 7.62077 13.6563ZM6.29838 13.6563C6.1604 13.6563 6.04803 13.5447 6.04803 13.4068C6.04803 13.2861 6.43636 12.1575 6.91682 9.44497C6.92756 9.38011 7.24442 7.34799 7.25723 7.26536C7.2754 7.12862 7.40099 7.03237 7.53814 7.05054C7.66249 7.06707 7.75544 7.17324 7.75503 7.29883C7.75462 7.3389 7.40925 9.53131 7.40925 9.53172C7.14858 11.0053 6.85568 12.3318 6.53923 13.4733C6.50907 13.5811 6.41075 13.6563 6.29838 13.6563Z" fill="#828282"/>
<path d="M5.9958 9.92427L5.54427 8.54446C5.5013 8.41309 5.57236 8.2718 5.70373 8.22884C5.8351 8.18587 5.97639 8.25693 6.01935 8.3883L6.38785 9.51817L7.07156 9.25378C7.19673 9.19594 7.34545 9.25047 7.40329 9.37606C7.4665 9.5128 7.39503 9.67309 7.25292 9.71895L6.3234 10.0784C6.18749 10.1329 6.03959 10.0565 5.9958 9.92427Z" fill="#828282"/>
<path d="M6.29763 13.6559C6.17865 13.6559 6.0762 13.5725 6.05265 13.456L5.46396 10.8955C5.45033 10.8368 5.45859 10.7757 5.48627 10.7224L6.01299 9.72927C6.07744 9.6074 6.22905 9.56072 6.35092 9.62517C6.47279 9.68961 6.51947 9.84123 6.45503 9.9631L5.9721 10.8748C6.57153 13.4919 6.54757 13.3511 6.54757 13.4068C6.54715 13.5444 6.4352 13.6559 6.29763 13.6559Z" fill="#828282"/>
<path d="M9.93555 13.6562H0.465267C0.327287 13.6562 0.215332 13.5442 0.215332 13.4062V10.6367C0.215332 9.1276 0.926719 8.23361 1.52326 7.74944C2.16689 7.22726 2.80888 7.06201 2.83573 7.05582C2.96958 7.02235 3.10549 7.10333 3.13896 7.23717C3.17242 7.37102 3.09145 7.50694 2.9576 7.54081C2.54283 7.66723 2.15739 7.8742 1.82277 8.14975C1.08783 8.75373 0.715203 9.5907 0.715203 10.6367V13.1563H9.68561V10.6367C9.68561 9.58326 9.30761 8.74216 8.56235 8.13653C8.23227 7.86635 7.8522 7.66351 7.44363 7.53999C7.30895 7.50901 7.2255 7.37433 7.25649 7.24007C7.2883 7.10291 7.42711 7.01822 7.56467 7.05499C7.59153 7.06201 8.23392 7.22643 8.87714 7.74861C9.47368 8.23279 10.1851 9.12677 10.1851 10.6359V13.4067C10.1855 13.5442 10.0735 13.6562 9.93555 13.6562Z" fill="#828282"/>
<path d="M5.11671 7.05589C3.82283 7.06085 2.83507 6.0012 2.78302 4.75194C2.78302 4.73087 2.78343 4.80647 2.7793 3.9224C2.7793 3.78442 2.89125 3.67247 3.02923 3.67247C3.16721 3.67247 3.27917 3.78442 3.27917 3.9224L3.28289 4.735C3.33618 5.77399 4.12399 6.55684 5.11712 6.55684C6.12306 6.55891 6.95797 5.74672 6.95508 4.74161V3.82367C6.95508 3.68569 7.06703 3.57373 7.20501 3.57373C7.34299 3.57373 7.45495 3.68569 7.45495 3.82367V4.7412C7.45908 6.0107 6.40976 7.05795 5.11671 7.05589Z" fill="#828282"/>
<path d="M2.95426 4.16064C2.84726 4.12718 2.77538 4.02638 2.7791 3.91401C2.81793 2.73084 2.33087 2.38837 2.2879 2.36069C2.14042 2.28426 2.11439 2.08432 2.23213 1.96864C3.38844 0.782586 4.42371 0.240991 5.30448 0.359142C5.73371 0.415326 6.12327 0.639235 6.3885 0.981709C6.77806 0.987492 7.0846 1.12341 7.30148 1.3878C7.85134 2.05664 7.58736 3.35837 7.44855 3.88798C7.41302 4.02142 7.27587 4.10074 7.14243 4.06521C7.03378 4.03629 6.95777 3.93797 6.95694 3.8256C6.9557 3.69547 6.94372 3.56575 6.92018 3.43769C6.83631 3.15925 6.61406 2.94071 6.4422 2.80644C6.39717 2.77298 6.33438 2.77753 6.29513 2.81801C6.02619 3.07414 5.57837 3.15966 5.24953 3.1861C5.13799 3.19477 5.02562 3.18775 4.91573 3.16503C3.95689 2.96508 3.26864 4.01398 3.23931 4.0586C3.17693 4.1532 3.0596 4.1941 2.95426 4.16064ZM2.77414 2.13513C2.94806 2.3326 3.16619 2.68871 3.2484 3.28194C3.63177 2.91675 4.25062 2.51437 5.01736 2.67425C5.08015 2.68747 5.14501 2.6916 5.20905 2.68664C5.54946 2.65896 5.82624 2.57262 5.94935 2.45488C6.16748 2.24213 6.50954 2.22312 6.74956 2.41109C6.88961 2.51974 7.01602 2.6445 7.12673 2.7829C7.15441 2.34086 7.10319 1.93559 6.91315 1.70425C6.77641 1.53776 6.56737 1.46588 6.27365 1.4853C6.17739 1.49108 6.08651 1.44151 6.03941 1.35723C5.85723 1.07796 5.56061 0.894128 5.2297 0.854882C4.76288 0.79498 3.9635 0.976751 2.77414 2.13513ZM5.05991 9.06722L2.75638 7.50482C2.61055 7.40526 2.61137 7.19043 2.75638 7.0917C2.76051 7.08881 3.25212 6.74096 3.40125 6.14773C3.43513 6.01388 3.57104 5.9325 3.70489 5.96637C3.83874 6.00025 3.92012 6.13616 3.88625 6.27001C3.77058 6.72775 3.50825 7.06691 3.30582 7.27265L5.20037 8.55868L7.09616 7.27389C6.86812 7.04254 6.5649 6.64223 6.47979 6.09361C6.45872 5.95728 6.5525 5.82922 6.68883 5.80815C6.82516 5.78708 6.95322 5.88086 6.97429 6.01718C7.07923 6.69717 7.64065 7.08922 7.64602 7.09294C7.79185 7.1925 7.79103 7.40732 7.64602 7.50606L5.34248 9.06846C5.25862 9.12382 5.14584 9.12547 5.05991 9.06722Z" fill="#828282"/>
</svg>
