<svg width="23" height="22" viewBox="0 0 23 22" fill="none" xmlns="http://www.w3.org/2000/svg">
<path d="M0.5 11.5H15.5C15.6326 11.5 15.7598 11.4473 15.8536 11.3536C15.9473 11.2598 16 11.1326 16 11C16 10.8674 15.9473 10.7402 15.8536 10.6464C15.7598 10.5527 15.6326 10.5 15.5 10.5H0.5C0.367392 10.5 0.240214 10.5527 0.146446 10.6464C0.0526781 10.7402 0 10.8674 0 11C0 11.1326 0.0526781 11.2598 0.146446 11.3536C0.240214 11.4473 0.367392 11.5 0.5 11.5Z" fill="#CF2B2B"/>
<path d="M11.5001 15.4999C11.6328 15.5 11.76 15.4475 11.8541 15.3539L15.8541 11.3539C15.9478 11.2602 16.0005 11.133 16.0005 11.0004C16.0005 10.8679 15.9478 10.7407 15.8541 10.6469L11.8541 6.64695C11.7598 6.55587 11.6335 6.50547 11.5024 6.50661C11.3713 6.50775 11.2459 6.56033 11.1532 6.65304C11.0605 6.74574 11.0079 6.87115 11.0068 7.00225C11.0056 7.13335 11.056 7.25965 11.1471 7.35395L14.7931 10.9999L11.1471 14.6459C11.077 14.7158 11.0293 14.8049 11.0099 14.9019C10.9905 14.9989 11.0003 15.0995 11.0381 15.1909C11.0759 15.2824 11.14 15.3605 11.2222 15.4156C11.3045 15.4706 11.4012 15.4999 11.5001 15.4999Z" fill="#CF2B2B"/>
<path d="M12 22C18.065 22 23 17.065 23 11C23 4.935 18.065 0 12 0C7.345 0 3.177 2.947 1.628 7.333C1.60613 7.39492 1.59668 7.46054 1.60017 7.52611C1.60367 7.59168 1.62004 7.65592 1.64836 7.71517C1.67668 7.77441 1.7164 7.8275 1.76524 7.87139C1.81408 7.91529 1.87108 7.94913 1.933 7.971C1.99492 7.99286 2.06054 8.00232 2.12611 7.99883C2.19168 7.99533 2.25592 7.97896 2.31517 7.95063C2.37441 7.92231 2.42749 7.8826 2.47139 7.83376C2.51529 7.78492 2.54913 7.72792 2.571 7.666C3.26211 5.71736 4.53951 4.03044 6.22779 2.83688C7.91607 1.64332 9.93243 1.00166 12 1C17.514 1 22 5.486 22 11C22 16.514 17.514 21 12 21C9.93237 20.9985 7.91595 20.3568 6.22777 19.163C4.53959 17.9692 3.26251 16.2819 2.572 14.333C2.52784 14.208 2.43581 14.1056 2.31617 14.0484C2.25692 14.02 2.19268 14.0037 2.12711 14.0002C2.06153 13.9967 1.99592 14.0061 1.934 14.028C1.87208 14.0499 1.81507 14.0837 1.76624 14.1276C1.7174 14.1715 1.67768 14.2246 1.64936 14.2838C1.62104 14.3431 1.60467 14.4073 1.60117 14.4729C1.59768 14.5385 1.60713 14.6041 1.629 14.666C2.38865 16.8098 3.79348 18.6658 5.65049 19.979C7.5075 21.2922 9.72558 21.9982 12 22Z" fill="#CF2B2B"/>
</svg>
