<svg width="14" height="12" viewBox="0 0 14 12" fill="none" xmlns="http://www.w3.org/2000/svg">
<path d="M5.53032 11.069C5.23866 11.069 5.03449 10.9698 4.91199 10.8765C4.67866 10.7073 4.31699 10.2698 4.54449 9.28983L4.87699 7.85483C4.90616 7.73233 4.84199 7.51066 4.75449 7.41733L3.59366 6.2565C2.98116 5.644 3.03366 5.11316 3.11533 4.85066C3.19699 4.58816 3.46533 4.12733 4.31699 3.9815L5.80449 3.7365C5.91533 3.719 6.09616 3.58483 6.14283 3.48566L6.96532 1.84066C7.36199 1.04733 7.88699 0.930664 8.16699 0.930664C8.44699 0.930664 8.97199 1.04733 9.36866 1.84066L10.1912 3.48566C10.2437 3.58483 10.4187 3.719 10.5295 3.7365L12.017 3.9815C12.8687 4.1215 13.137 4.58816 13.2187 4.85066C13.3003 5.11316 13.3528 5.644 12.7403 6.2565L11.5795 7.41733C11.492 7.50483 11.4278 7.73233 11.457 7.85483L11.7895 9.28983C12.017 10.2757 11.6553 10.7073 11.422 10.8765C11.1887 11.0457 10.6695 11.2615 9.79449 10.7423L8.40032 9.914C8.28366 9.844 8.03866 9.844 7.92199 9.914L6.52782 10.7423C6.12532 10.9873 5.78699 11.069 5.53032 11.069ZM4.66699 2.354H1.16699C0.927826 2.354 0.729492 2.15566 0.729492 1.9165C0.729492 1.67733 0.927826 1.479 1.16699 1.479H4.66699C4.90616 1.479 5.10449 1.67733 5.10449 1.9165C5.10449 2.15566 4.90616 2.354 4.66699 2.354ZM2.91699 10.5207H1.16699C0.927826 10.5207 0.729492 10.3223 0.729492 10.0832C0.729492 9.844 0.927826 9.64567 1.16699 9.64567H2.91699C3.15616 9.64567 3.35449 9.844 3.35449 10.0832C3.35449 10.3223 3.15616 10.5207 2.91699 10.5207ZM1.75033 6.43733H1.16699C0.927826 6.43733 0.729492 6.239 0.729492 5.99983C0.729492 5.76066 0.927826 5.56233 1.16699 5.56233H1.75033C1.98949 5.56233 2.18783 5.76066 2.18783 5.99983C2.18783 6.239 1.98949 6.43733 1.75033 6.43733Z" fill="#ECAE29"/>
</svg>
