<svg width="14" height="11" viewBox="0 0 14 11" fill="none" xmlns="http://www.w3.org/2000/svg">
<path d="M5.53032 10.569C5.23866 10.569 5.03449 10.4698 4.91199 10.3765C4.67866 10.2073 4.31699 9.76983 4.54449 8.78983L4.87699 7.35483C4.90616 7.23233 4.84199 7.01066 4.75449 6.91733L3.59366 5.7565C2.98116 5.144 3.03366 4.61316 3.11533 4.35066C3.19699 4.08816 3.46533 3.62733 4.31699 3.4815L5.80449 3.2365C5.91533 3.219 6.09616 3.08483 6.14283 2.98566L6.96532 1.34066C7.36199 0.547331 7.88699 0.430664 8.16699 0.430664C8.44699 0.430664 8.97199 0.547331 9.36866 1.34066L10.1912 2.98566C10.2437 3.08483 10.4187 3.219 10.5295 3.2365L12.017 3.4815C12.8687 3.6215 13.137 4.08816 13.2187 4.35066C13.3003 4.61316 13.3528 5.144 12.7403 5.7565L11.5795 6.91733C11.492 7.00483 11.4278 7.23233 11.457 7.35483L11.7895 8.78983C12.017 9.77566 11.6553 10.2073 11.422 10.3765C11.1887 10.5457 10.6695 10.7615 9.79449 10.2423L8.40032 9.414C8.28366 9.344 8.03866 9.344 7.92199 9.414L6.52782 10.2423C6.12532 10.4873 5.78699 10.569 5.53032 10.569ZM4.66699 1.854H1.16699C0.927826 1.854 0.729492 1.65566 0.729492 1.4165C0.729492 1.17733 0.927826 0.978997 1.16699 0.978997H4.66699C4.90616 0.978997 5.10449 1.17733 5.10449 1.4165C5.10449 1.65566 4.90616 1.854 4.66699 1.854ZM2.91699 10.0207H1.16699C0.927826 10.0207 0.729492 9.82233 0.729492 9.58317C0.729492 9.344 0.927826 9.14567 1.16699 9.14567H2.91699C3.15616 9.14567 3.35449 9.344 3.35449 9.58317C3.35449 9.82233 3.15616 10.0207 2.91699 10.0207ZM1.75033 5.93733H1.16699C0.927826 5.93733 0.729492 5.739 0.729492 5.49983C0.729492 5.26066 0.927826 5.06233 1.16699 5.06233H1.75033C1.98949 5.06233 2.18783 5.26066 2.18783 5.49983C2.18783 5.739 1.98949 5.93733 1.75033 5.93733Z" fill="black"/>
</svg>
