<svg width="20" height="20" viewBox="0 0 20 20" fill="none" xmlns="http://www.w3.org/2000/svg">
<path d="M14.5415 18.9582C13.5998 18.9582 12.6082 18.7332 11.5832 18.2998C10.5832 17.8748 9.57484 17.2915 8.5915 16.5832C7.6165 15.8665 6.67484 15.0665 5.78317 14.1915C4.89984 13.2998 4.09984 12.3582 3.3915 11.3915C2.67484 10.3915 2.09984 9.3915 1.6915 8.42484C1.25817 7.3915 1.0415 6.3915 1.0415 5.44984C1.0415 4.79984 1.15817 4.18317 1.38317 3.60817C1.6165 3.0165 1.9915 2.4665 2.49984 1.9915C3.1415 1.35817 3.87484 1.0415 4.65817 1.0415C4.98317 1.0415 5.3165 1.1165 5.59984 1.24984C5.92484 1.39984 6.19984 1.62484 6.39984 1.92484L8.33317 4.64984C8.50817 4.8915 8.6415 5.12484 8.73317 5.35817C8.8415 5.60817 8.89984 5.85817 8.89984 6.09984C8.89984 6.4165 8.80817 6.72484 8.63317 7.0165C8.50817 7.2415 8.3165 7.48317 8.07484 7.72484L7.50817 8.3165C7.5165 8.3415 7.52484 8.35817 7.53317 8.37484C7.63317 8.54984 7.83317 8.84984 8.2165 9.29984C8.62484 9.7665 9.00817 10.1915 9.3915 10.5832C9.88317 11.0665 10.2915 11.4498 10.6748 11.7665C11.1498 12.1665 11.4582 12.3665 11.6415 12.4582L11.6248 12.4998L12.2332 11.8998C12.4915 11.6415 12.7415 11.4498 12.9832 11.3248C13.4415 11.0415 14.0248 10.9915 14.6082 11.2332C14.8248 11.3248 15.0582 11.4498 15.3082 11.6248L18.0748 13.5915C18.3832 13.7998 18.6082 14.0665 18.7415 14.3832C18.8665 14.6998 18.9248 14.9915 18.9248 15.2832C18.9248 15.6832 18.8332 16.0832 18.6582 16.4582C18.4832 16.8332 18.2665 17.1582 17.9915 17.4582C17.5165 17.9832 16.9998 18.3582 16.3998 18.5998C15.8248 18.8332 15.1998 18.9582 14.5415 18.9582ZM4.65817 2.2915C4.19984 2.2915 3.77484 2.4915 3.3665 2.8915C2.98317 3.24984 2.7165 3.6415 2.54984 4.0665C2.37484 4.49984 2.2915 4.95817 2.2915 5.44984C2.2915 6.22484 2.47484 7.0665 2.8415 7.93317C3.2165 8.8165 3.7415 9.73317 4.40817 10.6498C5.07484 11.5665 5.83317 12.4582 6.6665 13.2998C7.49984 14.1248 8.39984 14.8915 9.32484 15.5665C10.2248 16.2248 11.1498 16.7582 12.0665 17.1415C13.4915 17.7498 14.8248 17.8915 15.9248 17.4332C16.3498 17.2582 16.7248 16.9915 17.0665 16.6082C17.2582 16.3998 17.4082 16.1748 17.5332 15.9082C17.6332 15.6998 17.6832 15.4832 17.6832 15.2665C17.6832 15.1332 17.6582 14.9998 17.5915 14.8498C17.5665 14.7998 17.5165 14.7082 17.3582 14.5998L14.5915 12.6332C14.4248 12.5165 14.2748 12.4332 14.1332 12.3748C13.9498 12.2998 13.8748 12.2248 13.5915 12.3998C13.4248 12.4832 13.2748 12.6082 13.1082 12.7748L12.4748 13.3998C12.1498 13.7165 11.6498 13.7915 11.2665 13.6498L11.0415 13.5498C10.6998 13.3665 10.2998 13.0832 9.85817 12.7082C9.45817 12.3665 9.02484 11.9665 8.49984 11.4498C8.0915 11.0332 7.68317 10.5915 7.25817 10.0998C6.8665 9.6415 6.58317 9.24984 6.40817 8.92484L6.30817 8.67484C6.25817 8.48317 6.2415 8.37484 6.2415 8.25817C6.2415 7.95817 6.34984 7.6915 6.55817 7.48317L7.18317 6.83317C7.34984 6.6665 7.47484 6.50817 7.55817 6.3665C7.62484 6.25817 7.64984 6.1665 7.64984 6.08317C7.64984 6.0165 7.62484 5.9165 7.58317 5.8165C7.52484 5.68317 7.43317 5.53317 7.3165 5.37484L5.38317 2.6415C5.29984 2.52484 5.19984 2.4415 5.07484 2.38317C4.9415 2.32484 4.79984 2.2915 4.65817 2.2915ZM11.6248 12.5082L11.4915 13.0748L11.7165 12.4915C11.6748 12.4832 11.6415 12.4915 11.6248 12.5082Z" fill="#21BF70"/>
</svg>
