<svg width="20" height="20" viewBox="0 0 20 20" fill="none" xmlns="http://www.w3.org/2000/svg">
<path d="M9.99984 19.0082C9.42484 19.0082 8.88317 18.7165 8.49984 18.2082L7.24984 16.5415C7.22484 16.5082 7.12484 16.4665 7.08317 16.4582H6.6665C3.1915 16.4582 1.0415 15.5165 1.0415 10.8332V6.6665C1.0415 2.98317 2.98317 1.0415 6.6665 1.0415H13.3332C17.0165 1.0415 18.9582 2.98317 18.9582 6.6665V10.8332C18.9582 14.5165 17.0165 16.4582 13.3332 16.4582H12.9165C12.8498 16.4582 12.7915 16.4915 12.7498 16.5415L11.4998 18.2082C11.1165 18.7165 10.5748 19.0082 9.99984 19.0082ZM6.6665 2.2915C3.68317 2.2915 2.2915 3.68317 2.2915 6.6665V10.8332C2.2915 14.5998 3.58317 15.2082 6.6665 15.2082H7.08317C7.50817 15.2082 7.9915 15.4498 8.24984 15.7915L9.49984 17.4582C9.7915 17.8415 10.2082 17.8415 10.4998 17.4582L11.7498 15.7915C12.0248 15.4248 12.4582 15.2082 12.9165 15.2082H13.3332C16.3165 15.2082 17.7082 13.8165 17.7082 10.8332V6.6665C17.7082 3.68317 16.3165 2.2915 13.3332 2.2915H6.6665Z" fill="#4CA4E3"/>
<path d="M9.99984 10.0002C9.53317 10.0002 9.1665 9.62516 9.1665 9.16683C9.1665 8.7085 9.5415 8.3335 9.99984 8.3335C10.4582 8.3335 10.8332 8.7085 10.8332 9.16683C10.8332 9.62516 10.4665 10.0002 9.99984 10.0002Z" fill="#4CA4E3"/>
<path d="M6.66683 10.0002C6.20016 10.0002 5.8335 9.62516 5.8335 9.16683C5.8335 8.7085 6.2085 8.3335 6.66683 8.3335C7.12516 8.3335 7.50016 8.7085 7.50016 9.16683C7.50016 9.62516 7.1335 10.0002 6.66683 10.0002Z" fill="#4CA4E3"/>
</svg>
