<svg width="20" height="24" viewBox="0 0 20 24" fill="none" xmlns="http://www.w3.org/2000/svg">
<path d="M9.67148 6.34992C9.70903 6.35108 9.74681 6.35162 9.78436 6.35162H9.78452C11.1173 6.35162 12.5634 5.60023 13.4683 4.43765C14.4024 3.23928 14.8268 1.80174 14.6327 0.493509C14.5884 0.194728 14.3207 -0.0201631 14.0203 0.00150333C12.7068 0.0934893 11.2198 0.89214 10.3202 1.98865C9.34147 3.18061 8.89303 4.63388 9.12072 5.87611C9.14455 6.00614 9.21221 6.12408 9.31242 6.21029C9.41263 6.2965 9.53935 6.34578 9.67148 6.34992ZM11.2143 2.72253C11.7722 2.04247 12.6753 1.48068 13.5216 1.25538C13.4813 2.40609 12.8564 3.34153 12.556 3.72705C11.9718 4.47743 11.0736 5.0174 10.2168 5.15858C10.2338 4.01426 10.9638 3.02756 11.2143 2.72253Z" fill="#180344"/>
<path d="M19.7902 17.4513C19.7599 17.3784 19.715 17.3125 19.6582 17.2576C19.6015 17.2028 19.5341 17.1601 19.4603 17.1323C17.0787 16.2343 16.3329 13.6533 17.0078 11.7765C17.3414 10.8456 17.9978 10.0891 18.906 9.58865C18.9798 9.54795 19.0438 9.4916 19.0936 9.42355C19.1433 9.3555 19.1776 9.27739 19.194 9.1947C19.2104 9.11201 19.2086 9.02674 19.1886 8.94484C19.1686 8.86295 19.1309 8.78642 19.0782 8.72061C17.8712 7.21429 16.1555 6.31502 14.4886 6.31502C13.3215 6.31502 12.5315 6.61465 11.8345 6.87896C11.321 7.07365 10.8777 7.24182 10.3694 7.24182C9.80715 7.24182 9.2944 7.05815 8.70054 6.84542C8.00637 6.59676 7.21967 6.31494 6.23643 6.31494C4.34143 6.31494 2.4209 7.46095 1.22362 9.30684C0.780576 9.99345 0.469921 10.8416 0.299905 11.8288C-0.178376 14.6371 0.631995 17.9834 2.46794 20.7807C3.50908 22.3637 4.82109 23.9841 6.6568 23.9998L6.69428 23.9999C7.45892 23.9999 7.97337 23.7701 8.47085 23.5479C8.99654 23.3131 9.4931 23.0913 10.3925 23.0868L10.4221 23.0868C11.3046 23.0868 11.7854 23.3074 12.2945 23.5409C12.7822 23.7647 13.2865 23.9961 14.0491 23.9961L14.0841 23.9958C15.8831 23.9806 17.2455 22.276 18.3422 20.609C19.0162 19.5765 19.2729 19.0488 19.784 17.9101C19.8162 17.8381 19.8334 17.7602 19.8345 17.6813C19.8356 17.6024 19.8205 17.5241 19.7902 17.4513ZM17.3747 19.9751C16.5012 21.303 15.3366 22.8286 14.0736 22.8394L14.0491 22.8395C13.539 22.8395 13.2025 22.685 12.7766 22.4897C12.2333 22.2404 11.5572 21.9302 10.422 21.9302L10.3863 21.9303C9.24367 21.936 8.5535 22.2442 7.99904 22.492C7.55947 22.6884 7.21227 22.8434 6.6942 22.8434L6.66737 22.8433C5.36723 22.8322 4.25653 21.3955 3.43444 20.1457C1.7551 17.587 1.0095 14.5506 1.43982 12.0241C1.58308 11.1922 1.8373 10.489 2.19468 9.93509C3.18031 8.41551 4.72903 7.47151 6.23643 7.47151C7.01873 7.47151 7.64621 7.69627 8.31054 7.93422C8.94758 8.16245 9.60629 8.39839 10.3694 8.39839C11.0896 8.39839 11.6768 8.17571 12.2446 7.96036C12.8782 7.72002 13.5335 7.47151 14.4886 7.47151C15.6251 7.47151 16.8054 8.01872 17.7433 8.95979C16.895 9.57817 16.2705 10.406 15.9194 11.3856C15.004 13.9313 16.1496 16.7538 18.4896 17.9638C18.1418 18.7182 17.8947 19.1786 17.3747 19.9751Z" fill="#180344"/>
</svg>
