<svg width="24" height="24" viewBox="0 0 24 24" fill="none" xmlns="http://www.w3.org/2000/svg">
<path d="M12 24C5.38579 24 0 18.6144 0 12C0 5.38584 5.38579 4.53349e-05 12 4.53349e-05C13.5765 -0.0043021 15.1383 0.304069 16.5949 0.907311C18.0515 1.51055 19.3739 2.39669 20.4858 3.51443L20.8928 3.92141L16.8501 7.95726L16.4429 7.55006C14.5164 5.62691 11.571 5.16239 9.14607 6.39908C6.72111 7.63583 5.36779 10.2931 5.79363 12.9817C6.21931 15.6703 8.32739 17.7792 11.0158 18.2064C13.7042 18.6334 16.3621 17.2816 17.6 14.8573H11.4285V9.14295H23.6643L23.7572 9.59997C23.9182 10.3899 23.9995 11.1939 23.9999 12C23.9999 18.6144 18.6144 24 12 24ZM12 1.14304C6.01424 1.14304 1.14278 6.01428 1.14278 12C1.14278 17.9858 6.01424 22.8572 12 22.8572C17.9857 22.8572 22.8572 17.9858 22.8572 12C22.8567 11.4259 22.8113 10.8527 22.7214 10.2857H12.5715V13.7143H19.2714L19 14.4785C17.9118 17.5466 14.9529 19.5488 11.7001 19.4178C8.4475 19.2869 5.65911 17.0537 4.82078 13.9081C3.98249 10.7626 5.28995 7.43789 8.04593 5.70577C10.8022 3.97354 14.365 4.23764 16.8356 6.35725L19.2643 3.92875C17.2742 2.12807 14.6838 1.13472 12 1.14304Z" fill="#180344"/>
</svg>
