<svg width="22" height="22" viewBox="0 0 22 22" fill="none" xmlns="http://www.w3.org/2000/svg">
<path d="M17.481 20.8543C17.0135 20.8543 16.5001 20.7168 16.0051 20.4327L11.5318 17.9485C11.266 17.8018 10.7435 17.8018 10.4776 17.9485L6.00429 20.4327C5.09679 20.9368 4.17096 20.9918 3.46512 20.5702C2.75929 20.1577 2.35596 19.3235 2.35596 18.2877V5.37183C2.35596 3.0435 4.25346 1.146 6.58179 1.146H15.4276C17.756 1.146 19.6535 3.0435 19.6535 5.37183V18.2877C19.6535 19.3235 19.2501 20.1577 18.5443 20.5702C18.2235 20.7627 17.8568 20.8543 17.481 20.8543Z" fill="#3523C3"/>
<path d="M11.0002 9.42326C10.0652 9.42326 9.13019 9.25826 8.24102 8.93743C7.88352 8.80909 7.70019 8.41493 7.82852 8.05743C7.96602 7.69993 8.36019 7.51659 8.71769 7.64493C10.1935 8.17659 11.816 8.17659 13.2919 7.64493C13.6494 7.51659 14.0435 7.69993 14.1719 8.05743C14.3002 8.41493 14.1169 8.80909 13.7594 8.93743C12.8702 9.25826 11.9352 9.42326 11.0002 9.42326Z" fill="#FDF7FA"/>
<path d="M17.481 20.8543C17.0135 20.8543 16.5001 20.7168 16.0051 20.4327L11.5318 17.9485C11.266 17.8018 10.7435 17.8018 10.4776 17.9485L6.00429 20.4327C5.09679 20.9368 4.17096 20.9918 3.46512 20.5702C2.75929 20.1577 2.35596 19.3235 2.35596 18.2877V5.37183C2.35596 3.0435 4.25346 1.146 6.58179 1.146H15.4276C17.756 1.146 19.6535 3.0435 19.6535 5.37183V18.2877C19.6535 19.3235 19.2501 20.1577 18.5443 20.5702C18.2235 20.7627 17.8568 20.8543 17.481 20.8543ZM11.0001 16.4635C11.431 16.4635 11.8526 16.5552 12.1918 16.7477L16.6651 19.2318C17.1326 19.4977 17.5635 19.5527 17.8385 19.3877C18.1135 19.2227 18.2693 18.8285 18.2693 18.2877V5.37183C18.2693 3.80433 16.986 2.521 15.4185 2.521H6.58179C5.01429 2.521 3.73096 3.80433 3.73096 5.37183V18.2877C3.73096 18.8285 3.88679 19.2318 4.16179 19.3877C4.43679 19.5435 4.85846 19.4977 5.33512 19.2318L9.80846 16.7477C10.1476 16.5552 10.5693 16.4635 11.0001 16.4635Z" fill="#3523C3"/>
</svg>
