<svg width="20" height="20" viewBox="0 0 20 20" fill="none" xmlns="http://www.w3.org/2000/svg">
<path d="M9.9998 18.9579C9.44147 18.9579 8.8748 18.8162 8.3748 18.5246L3.4248 15.6662C2.4248 15.0829 1.7998 14.0079 1.7998 12.8496V7.14961C1.7998 5.99127 2.4248 4.91627 3.4248 4.33294L8.3748 1.47461C9.3748 0.891276 10.6165 0.891276 11.6248 1.47461L16.5748 4.33294C17.5748 4.91627 18.1998 5.99127 18.1998 7.14961V12.8496C18.1998 14.0079 17.5748 15.0829 16.5748 15.6662L11.6248 18.5246C11.1248 18.8162 10.5581 18.9579 9.9998 18.9579Z" fill="#3523C3"/>
<path d="M10.0003 9.79151C8.58359 9.79151 7.43359 8.6415 7.43359 7.22483C7.43359 5.80817 8.58359 4.6582 10.0003 4.6582C11.4169 4.6582 12.5669 5.80817 12.5669 7.22483C12.5669 8.6415 11.4169 9.79151 10.0003 9.79151ZM10.0003 5.9082C9.27526 5.9082 8.68359 6.49983 8.68359 7.22483C8.68359 7.94983 9.27526 8.54151 10.0003 8.54151C10.7253 8.54151 11.3169 7.94983 11.3169 7.22483C11.3169 6.49983 10.7253 5.9082 10.0003 5.9082Z" fill="#FDF7FA"/>
<path d="M13.3337 14.5086C12.992 14.5086 12.7087 14.2253 12.7087 13.8836C12.7087 12.7336 11.492 11.792 10.0003 11.792C8.50866 11.792 7.29199 12.7336 7.29199 13.8836C7.29199 14.2253 7.00866 14.5086 6.66699 14.5086C6.32533 14.5086 6.04199 14.2253 6.04199 13.8836C6.04199 12.0419 7.81699 10.542 10.0003 10.542C12.1837 10.542 13.9587 12.0419 13.9587 13.8836C13.9587 14.2253 13.6753 14.5086 13.3337 14.5086Z" fill="#FDF7FA"/>
</svg>
