<svg width="22" height="22" viewBox="0 0 22 22" fill="none" xmlns="http://www.w3.org/2000/svg">
<path d="M18.9198 9.48857V4.59257C18.9198 3.51257 18.456 3.08057 17.3037 3.08057H14.3759C13.2236 3.08057 12.7598 3.51257 12.7598 4.59257V9.48857C12.7598 10.5686 13.2236 11.0006 14.3759 11.0006H17.3037C18.456 11.0006 18.9198 10.5686 18.9198 9.48857Z" stroke="#828282" stroke-width="1.1"/>
<path d="M10.12 12.512V17.408C10.12 18.488 9.65615 18.92 8.50387 18.92H5.57606C4.42377 18.92 3.95996 18.488 3.95996 17.408V12.512C3.95996 11.432 4.42377 11 5.57606 11H8.50387C9.65615 11 10.12 11.432 10.12 12.512Z" stroke="#828282" stroke-width="1.1"/>
<path d="M18.9198 17.3366V15.2246C18.9198 14.0932 18.456 13.6406 17.3037 13.6406H14.3759C13.2236 13.6406 12.7598 14.0932 12.7598 15.2246V17.3366C12.7598 18.4681 13.2236 18.9206 14.3759 18.9206H17.3037C18.456 18.9206 18.9198 18.4681 18.9198 17.3366Z" stroke="#828282" stroke-width="1.1"/>
<path d="M10.12 6.77657V4.66457C10.12 3.53314 9.65615 3.08057 8.50387 3.08057H5.57606C4.42377 3.08057 3.95996 3.53314 3.95996 4.66457V6.77657C3.95996 7.90799 4.42377 8.36057 5.57606 8.36057H8.50387C9.65615 8.36057 10.12 7.90799 10.12 6.77657Z" stroke="#828282" stroke-width="1.1"/>
</svg>
