<svg width="20" height="20" viewBox="0 0 20 20" fill="none" xmlns="http://www.w3.org/2000/svg">
<path d="M17.9168 9.08317V3.4165C17.9168 2.1665 17.3835 1.6665 16.0585 1.6665H12.6918C11.3668 1.6665 10.8335 2.1665 10.8335 3.4165V9.08317C10.8335 10.3332 11.3668 10.8332 12.6918 10.8332H16.0585C17.3835 10.8332 17.9168 10.3332 17.9168 9.08317Z" fill="#3523C3"/>
<path d="M9.16683 10.9165V16.5832C9.16683 17.8332 8.6335 18.3332 7.3085 18.3332H3.94183C2.61683 18.3332 2.0835 17.8332 2.0835 16.5832V10.9165C2.0835 9.6665 2.61683 9.1665 3.94183 9.1665H7.3085C8.6335 9.1665 9.16683 9.6665 9.16683 10.9165Z" fill="#3523C3"/>
<path d="M17.9168 16.5833V14.25C17.9168 13 17.3835 12.5 16.0585 12.5H12.6918C11.3668 12.5 10.8335 13 10.8335 14.25V16.5833C10.8335 17.8333 11.3668 18.3333 12.6918 18.3333H16.0585C17.3835 18.3333 17.9168 17.8333 17.9168 16.5833Z" fill="#3523C3"/>
<path d="M9.16683 5.74984V3.4165C9.16683 2.1665 8.6335 1.6665 7.3085 1.6665H3.94183C2.61683 1.6665 2.0835 2.1665 2.0835 3.4165V5.74984C2.0835 6.99984 2.61683 7.49984 3.94183 7.49984H7.3085C8.6335 7.49984 9.16683 6.99984 9.16683 5.74984Z" fill="#3523C3"/>
</svg>
