<svg width="18" height="18" viewBox="0 0 18 18" fill="none" xmlns="http://www.w3.org/2000/svg">
<path d="M16.9198 7.48857V2.59257C16.9198 1.51257 16.456 1.08057 15.3037 1.08057H12.3759C11.2236 1.08057 10.7598 1.51257 10.7598 2.59257V7.48857C10.7598 8.56857 11.2236 9.00057 12.3759 9.00057H15.3037C16.456 9.00057 16.9198 8.56857 16.9198 7.48857Z" stroke="#3523C3" stroke-width="1.1"/>
<path d="M8.11996 10.512V15.408C8.11996 16.488 7.65615 16.92 6.50387 16.92H3.57606C2.42377 16.92 1.95996 16.488 1.95996 15.408V10.512C1.95996 9.432 2.42377 9 3.57606 9H6.50387C7.65615 9 8.11996 9.432 8.11996 10.512Z" stroke="#3523C3" stroke-width="1.1"/>
<path d="M16.9198 15.3366V13.2246C16.9198 12.0932 16.456 11.6406 15.3037 11.6406H12.3759C11.2236 11.6406 10.7598 12.0932 10.7598 13.2246V15.3366C10.7598 16.4681 11.2236 16.9206 12.3759 16.9206H15.3037C16.456 16.9206 16.9198 16.4681 16.9198 15.3366Z" stroke="#3523C3" stroke-width="1.1"/>
<path d="M8.11996 4.77657V2.66457C8.11996 1.53314 7.65615 1.08057 6.50387 1.08057H3.57606C2.42377 1.08057 1.95996 1.53314 1.95996 2.66457V4.77657C1.95996 5.90799 2.42377 6.36057 3.57606 6.36057H6.50387C7.65615 6.36057 8.11996 5.90799 8.11996 4.77657Z" stroke="#3523C3" stroke-width="1.1"/>
</svg>
