<svg width="20" height="20" viewBox="0 0 20 20" fill="none" xmlns="http://www.w3.org/2000/svg">
<path d="M14.6831 8.0166H10.3081C9.96644 8.0166 9.68311 7.73327 9.68311 7.3916C9.68311 7.04993 9.96644 6.7666 10.3081 6.7666H14.6831C15.0248 6.7666 15.3081 7.04993 15.3081 7.3916C15.3081 7.73327 15.0331 8.0166 14.6831 8.0166Z" fill="#828282"/>
<path d="M5.93346 8.64977C5.77513 8.64977 5.6168 8.59144 5.4918 8.46644L4.8668 7.84144C4.62513 7.59977 4.62513 7.19977 4.8668 6.95811C5.10846 6.71644 5.50846 6.71644 5.75013 6.95811L5.93346 7.14144L7.3668 5.70811C7.60846 5.46644 8.00846 5.46644 8.25013 5.70811C8.4918 5.94977 8.4918 6.34977 8.25013 6.59144L6.37513 8.46644C6.25846 8.58311 6.10013 8.64977 5.93346 8.64977Z" fill="#828282"/>
<path d="M14.6831 13.8501H10.3081C9.96644 13.8501 9.68311 13.5668 9.68311 13.2251C9.68311 12.8834 9.96644 12.6001 10.3081 12.6001H14.6831C15.0248 12.6001 15.3081 12.8834 15.3081 13.2251C15.3081 13.5668 15.0331 13.8501 14.6831 13.8501Z" fill="#828282"/>
<path d="M5.93346 14.4833C5.77513 14.4833 5.6168 14.4249 5.4918 14.2999L4.8668 13.6749C4.62513 13.4333 4.62513 13.0333 4.8668 12.7916C5.10846 12.5499 5.50846 12.5499 5.75013 12.7916L5.93346 12.9749L7.3668 11.5416C7.60846 11.2999 8.00846 11.2999 8.25013 11.5416C8.4918 11.7833 8.4918 12.1833 8.25013 12.4249L6.37513 14.2999C6.25846 14.4166 6.10013 14.4833 5.93346 14.4833Z" fill="#828282"/>
<path d="M12.4998 18.9582H7.49984C2.97484 18.9582 1.0415 17.0248 1.0415 12.4998V7.49984C1.0415 2.97484 2.97484 1.0415 7.49984 1.0415H12.4998C17.0248 1.0415 18.9582 2.97484 18.9582 7.49984V12.4998C18.9582 17.0248 17.0248 18.9582 12.4998 18.9582ZM7.49984 2.2915C3.65817 2.2915 2.2915 3.65817 2.2915 7.49984V12.4998C2.2915 16.3415 3.65817 17.7082 7.49984 17.7082H12.4998C16.3415 17.7082 17.7082 16.3415 17.7082 12.4998V7.49984C17.7082 3.65817 16.3415 2.2915 12.4998 2.2915H7.49984Z" fill="#828282"/>
</svg>
