<svg width="20" height="20" viewBox="0 0 20 20" fill="none" xmlns="http://www.w3.org/2000/svg">
<path d="M12.25 18.9579H7.74997C3.6333 18.9579 1.8833 17.1996 1.8833 13.0913V9.34961C1.8833 9.00794 2.16663 8.72461 2.5083 8.72461C2.84997 8.72461 3.1333 9.00794 3.1333 9.34961V13.0913C3.1333 16.4996 4.34163 17.7079 7.74997 17.7079H12.2416C15.65 17.7079 16.8583 16.4996 16.8583 13.0913V9.34961C16.8583 9.00794 17.1416 8.72461 17.4833 8.72461C17.825 8.72461 18.1083 9.00794 18.1083 9.34961V13.0913C18.1166 17.1996 16.3583 18.9579 12.25 18.9579Z" fill="#3523C3"/>
<path d="M10.0002 10.6253C9.0835 10.6253 8.25016 10.267 7.6585 9.60866C7.06683 8.95033 6.79183 8.09199 6.8835 7.17532L7.44183 1.60866C7.47516 1.29199 7.74183 1.04199 8.06683 1.04199H11.9585C12.2835 1.04199 12.5502 1.28366 12.5835 1.60866L13.1418 7.17532C13.2335 8.09199 12.9585 8.95033 12.3668 9.60866C11.7502 10.267 10.9168 10.6253 10.0002 10.6253ZM8.62516 2.29199L8.12516 7.30033C8.06683 7.85866 8.2335 8.38366 8.5835 8.76699C9.29183 9.55033 10.7085 9.55033 11.4168 8.76699C11.7668 8.37533 11.9335 7.85033 11.8752 7.30033L11.3752 2.29199H8.62516Z" fill="#3523C3"/>
<path d="M15.2585 10.6253C13.5668 10.6253 12.0585 9.25866 11.8835 7.57533L11.3002 1.73366C11.2835 1.55866 11.3418 1.38366 11.4585 1.25033C11.5752 1.11699 11.7418 1.04199 11.9252 1.04199H14.4668C16.9168 1.04199 18.0585 2.06699 18.4002 4.58366L18.6335 6.90033C18.7335 7.88366 18.4335 8.81699 17.7918 9.52533C17.1502 10.2337 16.2502 10.6253 15.2585 10.6253ZM12.6168 2.29199L13.1335 7.45033C13.2418 8.49199 14.2085 9.37533 15.2585 9.37533C15.8918 9.37533 16.4585 9.13366 16.8668 8.69199C17.2668 8.25033 17.4502 7.65866 17.3918 7.02533L17.1585 4.73366C16.9002 2.85033 16.2918 2.29199 14.4668 2.29199H12.6168Z" fill="#3523C3"/>
<path d="M4.70002 10.6253C3.70835 10.6253 2.80835 10.2337 2.16668 9.52533C1.52502 8.81699 1.22502 7.88366 1.32502 6.90033L1.55002 4.60866C1.90002 2.06699 3.04168 1.04199 5.49168 1.04199H8.03335C8.20835 1.04199 8.37502 1.11699 8.50002 1.25033C8.62502 1.38366 8.67502 1.55866 8.65835 1.73366L8.07502 7.57533C7.90002 9.25866 6.39168 10.6253 4.70002 10.6253ZM5.49168 2.29199C3.66668 2.29199 3.05835 2.84199 2.79168 4.75033L2.56668 7.02533C2.50002 7.65866 2.69168 8.25033 3.09168 8.69199C3.49168 9.13366 4.05835 9.37533 4.70002 9.37533C5.75002 9.37533 6.72502 8.49199 6.82502 7.45033L7.34168 2.29199H5.49168Z" fill="#3523C3"/>
<path d="M12.0832 18.9587H7.9165C7.57484 18.9587 7.2915 18.6753 7.2915 18.3337V16.2503C7.2915 14.5003 8.24984 13.542 9.99984 13.542C11.7498 13.542 12.7082 14.5003 12.7082 16.2503V18.3337C12.7082 18.6753 12.4248 18.9587 12.0832 18.9587ZM8.5415 17.7087H11.4582V16.2503C11.4582 15.2003 11.0498 14.792 9.99984 14.792C8.94984 14.792 8.5415 15.2003 8.5415 16.2503V17.7087Z" fill="#3523C3"/>
</svg>
