<svg width="20" height="20" viewBox="0 0 20 20" fill="none" xmlns="http://www.w3.org/2000/svg">
<path d="M18.6335 6.89199L18.3919 4.58366C18.0419 2.06699 16.9002 1.04199 14.4585 1.04199H12.4919H11.2585H8.7252H7.49186H5.49186C3.04186 1.04199 1.90853 2.06699 1.5502 4.60866L1.3252 6.90033C1.24186 7.79199 1.48353 8.65866 2.00853 9.33366C2.64186 10.1587 3.61686 10.6253 4.7002 10.6253C5.7502 10.6253 6.75853 10.1003 7.39186 9.25866C7.95853 10.1003 8.9252 10.6253 10.0002 10.6253C11.0752 10.6253 12.0169 10.1253 12.5919 9.29199C13.2335 10.117 14.2252 10.6253 15.2585 10.6253C16.3669 10.6253 17.3669 10.1337 17.9919 9.26699C18.4919 8.60033 18.7169 7.75866 18.6335 6.89199Z" fill="#3523C3"/>
<path d="M9.45843 13.8829C8.4001 13.9912 7.6001 14.8912 7.6001 15.9579V18.2412C7.6001 18.4662 7.78343 18.6496 8.00843 18.6496H11.9834C12.2084 18.6496 12.3918 18.4662 12.3918 18.2412V16.2496C12.4001 14.5079 11.3751 13.6829 9.45843 13.8829Z" fill="#3523C3"/>
<path d="M17.8086 12.0001V14.4834C17.8086 16.7834 15.9419 18.6501 13.6419 18.6501C13.4169 18.6501 13.2336 18.4667 13.2336 18.2417V16.2501C13.2336 15.1834 12.9086 14.3501 12.2752 13.7834C11.7169 13.2751 10.9586 13.0251 10.0169 13.0251C9.80856 13.0251 9.60023 13.0334 9.37523 13.0584C7.89189 13.2084 6.76689 14.4584 6.76689 15.9584V18.2417C6.76689 18.4667 6.58356 18.6501 6.35856 18.6501C4.05856 18.6501 2.19189 16.7834 2.19189 14.4834V12.0167C2.19189 11.4334 2.76689 11.0417 3.30856 11.2334C3.53356 11.3084 3.75856 11.3667 3.99189 11.4001C4.09189 11.4167 4.20023 11.4334 4.30023 11.4334C4.43356 11.4501 4.56689 11.4584 4.70023 11.4584C5.66689 11.4584 6.61689 11.1001 7.36689 10.4834C8.08356 11.1001 9.01689 11.4584 10.0002 11.4584C10.9919 11.4584 11.9086 11.1167 12.6252 10.5001C13.3752 11.1084 14.3086 11.4584 15.2586 11.4584C15.4086 11.4584 15.5586 11.4501 15.7002 11.4334C15.8002 11.4251 15.8919 11.4167 15.9836 11.4001C16.2419 11.3667 16.4752 11.2917 16.7086 11.2167C17.2502 11.0334 17.8086 11.4334 17.8086 12.0001Z" fill="#3523C3"/>
</svg>
