<svg width="20" height="20" viewBox="0 0 20 20" fill="none" xmlns="http://www.w3.org/2000/svg">
<path d="M12.25 18.9584H7.74997C3.6333 18.9584 1.8833 17.2001 1.8833 13.0918V9.3501C1.8833 9.00843 2.16663 8.7251 2.5083 8.7251C2.84997 8.7251 3.1333 9.00843 3.1333 9.3501V13.0918C3.1333 16.5001 4.34163 17.7084 7.74997 17.7084H12.2416C15.65 17.7084 16.8583 16.5001 16.8583 13.0918V9.3501C16.8583 9.00843 17.1416 8.7251 17.4833 8.7251C17.825 8.7251 18.1083 9.00843 18.1083 9.3501V13.0918C18.1166 17.2001 16.3583 18.9584 12.25 18.9584Z" fill="#828282"/>
<path d="M10.0002 10.6248C9.0835 10.6248 8.25016 10.2665 7.6585 9.60817C7.06683 8.94984 6.79183 8.0915 6.8835 7.17484L7.44183 1.60817C7.47516 1.2915 7.74183 1.0415 8.06683 1.0415H11.9585C12.2835 1.0415 12.5502 1.28317 12.5835 1.60817L13.1418 7.17484C13.2335 8.0915 12.9585 8.94984 12.3668 9.60817C11.7502 10.2665 10.9168 10.6248 10.0002 10.6248ZM8.62516 2.2915L8.12516 7.29984C8.06683 7.85817 8.2335 8.38317 8.5835 8.7665C9.29183 9.54984 10.7085 9.54984 11.4168 8.7665C11.7668 8.37484 11.9335 7.84984 11.8752 7.29984L11.3752 2.2915H8.62516Z" fill="#828282"/>
<path d="M15.2585 10.6248C13.5668 10.6248 12.0585 9.25817 11.8835 7.57484L11.3002 1.73317C11.2835 1.55817 11.3418 1.38317 11.4585 1.24984C11.5752 1.1165 11.7418 1.0415 11.9252 1.0415H14.4668C16.9168 1.0415 18.0585 2.0665 18.4002 4.58317L18.6335 6.89984C18.7335 7.88317 18.4335 8.8165 17.7918 9.52484C17.1502 10.2332 16.2502 10.6248 15.2585 10.6248ZM12.6168 2.2915L13.1335 7.44984C13.2418 8.4915 14.2085 9.37484 15.2585 9.37484C15.8918 9.37484 16.4585 9.13317 16.8668 8.6915C17.2668 8.24984 17.4502 7.65817 17.3918 7.02484L17.1585 4.73317C16.9002 2.84984 16.2918 2.2915 14.4668 2.2915H12.6168Z" fill="#828282"/>
<path d="M4.70002 10.6248C3.70835 10.6248 2.80835 10.2332 2.16668 9.52484C1.52502 8.8165 1.22502 7.88317 1.32502 6.89984L1.55002 4.60817C1.90002 2.0665 3.04168 1.0415 5.49168 1.0415H8.03335C8.20835 1.0415 8.37502 1.1165 8.50002 1.24984C8.62502 1.38317 8.67502 1.55817 8.65835 1.73317L8.07502 7.57484C7.90002 9.25817 6.39168 10.6248 4.70002 10.6248ZM5.49168 2.2915C3.66668 2.2915 3.05835 2.8415 2.79168 4.74984L2.56668 7.02484C2.50002 7.65817 2.69168 8.24984 3.09168 8.6915C3.49168 9.13317 4.05835 9.37484 4.70002 9.37484C5.75002 9.37484 6.72502 8.4915 6.82502 7.44984L7.34168 2.2915H5.49168Z" fill="#828282"/>
<path d="M12.0832 18.9582H7.9165C7.57484 18.9582 7.2915 18.6748 7.2915 18.3332V16.2498C7.2915 14.4998 8.24984 13.5415 9.99984 13.5415C11.7498 13.5415 12.7082 14.4998 12.7082 16.2498V18.3332C12.7082 18.6748 12.4248 18.9582 12.0832 18.9582ZM8.5415 17.7082H11.4582V16.2498C11.4582 15.1998 11.0498 14.7915 9.99984 14.7915C8.94984 14.7915 8.5415 15.1998 8.5415 16.2498V17.7082Z" fill="#828282"/>
</svg>
