<svg width="20" height="20" viewBox="0 0 20 20" fill="none" xmlns="http://www.w3.org/2000/svg">
<path d="M9.99984 19.0087C9.42484 19.0087 8.88317 18.717 8.49984 18.2087L7.24984 16.542C7.22484 16.5087 7.12484 16.467 7.08317 16.4587H6.6665C3.1915 16.4587 1.0415 15.517 1.0415 10.8337V6.66699C1.0415 2.98366 2.98317 1.04199 6.6665 1.04199H13.3332C17.0165 1.04199 18.9582 2.98366 18.9582 6.66699V10.8337C18.9582 14.517 17.0165 16.4587 13.3332 16.4587H12.9165C12.8498 16.4587 12.7915 16.492 12.7498 16.542L11.4998 18.2087C11.1165 18.717 10.5748 19.0087 9.99984 19.0087ZM6.6665 2.29199C3.68317 2.29199 2.2915 3.68366 2.2915 6.66699V10.8337C2.2915 14.6003 3.58317 15.2087 6.6665 15.2087H7.08317C7.50817 15.2087 7.9915 15.4503 8.24984 15.792L9.49984 17.4587C9.7915 17.842 10.2082 17.842 10.4998 17.4587L11.7498 15.792C12.0248 15.4253 12.4582 15.2087 12.9165 15.2087H13.3332C16.3165 15.2087 17.7082 13.817 17.7082 10.8337V6.66699C17.7082 3.68366 16.3165 2.29199 13.3332 2.29199H6.6665Z" fill="#3523C3"/>
<path d="M14.1668 7.29199H5.8335C5.49183 7.29199 5.2085 7.00866 5.2085 6.66699C5.2085 6.32533 5.49183 6.04199 5.8335 6.04199H14.1668C14.5085 6.04199 14.7918 6.32533 14.7918 6.66699C14.7918 7.00866 14.5085 7.29199 14.1668 7.29199Z" fill="#3523C3"/>
<path d="M10.8335 11.458H5.8335C5.49183 11.458 5.2085 11.1747 5.2085 10.833C5.2085 10.4913 5.49183 10.208 5.8335 10.208H10.8335C11.1752 10.208 11.4585 10.4913 11.4585 10.833C11.4585 11.1747 11.1752 11.458 10.8335 11.458Z" fill="#3523C3"/>
</svg>
