<svg width="20" height="20" viewBox="0 0 20 20" fill="none" xmlns="http://www.w3.org/2000/svg">
<path d="M9.99984 19.0082C9.42484 19.0082 8.88317 18.7165 8.49984 18.2082L7.24984 16.5415C7.22484 16.5082 7.12484 16.4665 7.08317 16.4582H6.6665C3.1915 16.4582 1.0415 15.5165 1.0415 10.8332V6.6665C1.0415 2.98317 2.98317 1.0415 6.6665 1.0415H13.3332C17.0165 1.0415 18.9582 2.98317 18.9582 6.6665V10.8332C18.9582 14.5165 17.0165 16.4582 13.3332 16.4582H12.9165C12.8498 16.4582 12.7915 16.4915 12.7498 16.5415L11.4998 18.2082C11.1165 18.7165 10.5748 19.0082 9.99984 19.0082ZM6.6665 2.2915C3.68317 2.2915 2.2915 3.68317 2.2915 6.6665V10.8332C2.2915 14.5998 3.58317 15.2082 6.6665 15.2082H7.08317C7.50817 15.2082 7.9915 15.4498 8.24984 15.7915L9.49984 17.4582C9.7915 17.8415 10.2082 17.8415 10.4998 17.4582L11.7498 15.7915C12.0248 15.4248 12.4582 15.2082 12.9165 15.2082H13.3332C16.3165 15.2082 17.7082 13.8165 17.7082 10.8332V6.6665C17.7082 3.68317 16.3165 2.2915 13.3332 2.2915H6.6665Z" fill="#828282"/>
<path d="M14.1668 7.2915H5.8335C5.49183 7.2915 5.2085 7.00817 5.2085 6.6665C5.2085 6.32484 5.49183 6.0415 5.8335 6.0415H14.1668C14.5085 6.0415 14.7918 6.32484 14.7918 6.6665C14.7918 7.00817 14.5085 7.2915 14.1668 7.2915Z" fill="#828282"/>
<path d="M10.8335 11.4585H5.8335C5.49183 11.4585 5.2085 11.1752 5.2085 10.8335C5.2085 10.4918 5.49183 10.2085 5.8335 10.2085H10.8335C11.1752 10.2085 11.4585 10.4918 11.4585 10.8335C11.4585 11.1752 11.1752 11.4585 10.8335 11.4585Z" fill="#828282"/>
</svg>
