<svg width="22" height="22" viewBox="0 0 22 22" fill="none" xmlns="http://www.w3.org/2000/svg">
<path d="M7.3335 5.271C6.95766 5.271 6.646 4.95933 6.646 4.5835V1.8335C6.646 1.45766 6.95766 1.146 7.3335 1.146C7.70933 1.146 8.021 1.45766 8.021 1.8335V4.5835C8.021 4.95933 7.70933 5.271 7.3335 5.271Z" fill="#828282"/>
<path d="M14.6665 5.271C14.2907 5.271 13.979 4.95933 13.979 4.5835V1.8335C13.979 1.45766 14.2907 1.146 14.6665 1.146C15.0423 1.146 15.354 1.45766 15.354 1.8335V4.5835C15.354 4.95933 15.0423 5.271 14.6665 5.271Z" fill="#828282"/>
<path d="M7.79167 13.2916C7.6725 13.2916 7.55333 13.2641 7.44333 13.2183C7.32417 13.1725 7.2325 13.1083 7.14083 13.0258C6.97583 12.8516 6.875 12.6225 6.875 12.375C6.875 12.2558 6.9025 12.1366 6.94833 12.0266C6.99417 11.9166 7.05833 11.8158 7.14083 11.7241C7.2325 11.6416 7.32417 11.5774 7.44333 11.5316C7.77333 11.3941 8.18583 11.4675 8.4425 11.7241C8.6075 11.8983 8.70833 12.1366 8.70833 12.375C8.70833 12.43 8.69917 12.4941 8.69 12.5583C8.68083 12.6133 8.6625 12.6683 8.635 12.7233C8.61666 12.7783 8.58917 12.8333 8.5525 12.8883C8.525 12.9341 8.47917 12.98 8.4425 13.0258C8.26833 13.1908 8.03 13.2916 7.79167 13.2916Z" fill="#828282"/>
<path d="M11.0002 13.2918C10.881 13.2918 10.7618 13.2643 10.6518 13.2185C10.5327 13.1726 10.441 13.1085 10.3493 13.026C10.1843 12.8518 10.0835 12.6226 10.0835 12.3751C10.0835 12.256 10.111 12.1368 10.1568 12.0268C10.2027 11.9168 10.2668 11.816 10.3493 11.7243C10.441 11.6418 10.5327 11.5776 10.6518 11.5318C10.9818 11.3851 11.3943 11.4676 11.651 11.7243C11.816 11.8985 11.9168 12.1368 11.9168 12.3751C11.9168 12.4301 11.9077 12.4943 11.8985 12.5585C11.8893 12.6135 11.871 12.6685 11.8435 12.7235C11.8252 12.7785 11.7977 12.8335 11.761 12.8885C11.7335 12.9343 11.6877 12.9801 11.651 13.026C11.4768 13.191 11.2385 13.2918 11.0002 13.2918Z" fill="#828282"/>
<path d="M14.2082 13.2918C14.089 13.2918 13.9698 13.2643 13.8598 13.2185C13.7407 13.1726 13.649 13.1085 13.5573 13.026C13.5207 12.9801 13.484 12.9343 13.4473 12.8885C13.4107 12.8335 13.3832 12.7785 13.3648 12.7235C13.3373 12.6685 13.319 12.6135 13.3098 12.5585C13.3007 12.4943 13.2915 12.4301 13.2915 12.3751C13.2915 12.1368 13.3923 11.8985 13.5573 11.7243C13.649 11.6418 13.7407 11.5776 13.8598 11.5318C14.199 11.3851 14.6023 11.4676 14.859 11.7243C15.024 11.8985 15.1248 12.1368 15.1248 12.3751C15.1248 12.4301 15.1157 12.4943 15.1065 12.5585C15.0973 12.6135 15.079 12.6685 15.0515 12.7235C15.0332 12.7785 15.0057 12.8335 14.969 12.8885C14.9415 12.9343 14.8957 12.9801 14.859 13.026C14.6848 13.191 14.4465 13.2918 14.2082 13.2918Z" fill="#828282"/>
<path d="M7.79167 16.5001C7.6725 16.5001 7.55333 16.4726 7.44333 16.4268C7.33333 16.3809 7.2325 16.3167 7.14083 16.2342C6.97583 16.0601 6.875 15.8218 6.875 15.5834C6.875 15.4643 6.9025 15.3451 6.94833 15.2351C6.99417 15.1159 7.05833 15.0151 7.14083 14.9326C7.48 14.5934 8.10333 14.5934 8.4425 14.9326C8.6075 15.1068 8.70833 15.3451 8.70833 15.5834C8.70833 15.8218 8.6075 16.0601 8.4425 16.2342C8.26833 16.3992 8.03 16.5001 7.79167 16.5001Z" fill="#828282"/>
<path d="M11.0002 16.5001C10.7618 16.5001 10.5235 16.3992 10.3493 16.2342C10.1843 16.0601 10.0835 15.8218 10.0835 15.5834C10.0835 15.4643 10.111 15.3451 10.1568 15.2351C10.2027 15.1159 10.2668 15.0151 10.3493 14.9326C10.6885 14.5934 11.3118 14.5934 11.651 14.9326C11.7335 15.0151 11.7977 15.1159 11.8435 15.2351C11.8893 15.3451 11.9168 15.4643 11.9168 15.5834C11.9168 15.8218 11.816 16.0601 11.651 16.2342C11.4768 16.3992 11.2385 16.5001 11.0002 16.5001Z" fill="#828282"/>
<path d="M14.2082 16.5002C13.9698 16.5002 13.7315 16.3993 13.5573 16.2343C13.4748 16.1518 13.4107 16.051 13.3648 15.9318C13.319 15.8218 13.2915 15.7027 13.2915 15.5835C13.2915 15.4643 13.319 15.3452 13.3648 15.2352C13.4107 15.116 13.4748 15.0152 13.5573 14.9327C13.7682 14.7218 14.089 14.621 14.3823 14.6852C14.4465 14.6943 14.5015 14.7127 14.5565 14.7402C14.6115 14.7585 14.6665 14.786 14.7215 14.8227C14.7673 14.8502 14.8132 14.896 14.859 14.9327C15.024 15.1068 15.1248 15.3452 15.1248 15.5835C15.1248 15.8218 15.024 16.0602 14.859 16.2343C14.6848 16.3993 14.4465 16.5002 14.2082 16.5002Z" fill="#828282"/>
<path d="M18.7918 9.02002H3.2085C2.83266 9.02002 2.521 8.70835 2.521 8.33252C2.521 7.95669 2.83266 7.64502 3.2085 7.64502H18.7918C19.1677 7.64502 19.4793 7.95669 19.4793 8.33252C19.4793 8.70835 19.1677 9.02002 18.7918 9.02002Z" fill="#828282"/>
<path d="M14.6667 20.8543H7.33333C3.9875 20.8543 2.0625 18.9293 2.0625 15.5835V7.79183C2.0625 4.446 3.9875 2.521 7.33333 2.521H14.6667C18.0125 2.521 19.9375 4.446 19.9375 7.79183V15.5835C19.9375 18.9293 18.0125 20.8543 14.6667 20.8543ZM7.33333 3.896C4.71167 3.896 3.4375 5.17016 3.4375 7.79183V15.5835C3.4375 18.2052 4.71167 19.4793 7.33333 19.4793H14.6667C17.2883 19.4793 18.5625 18.2052 18.5625 15.5835V7.79183C18.5625 5.17016 17.2883 3.896 14.6667 3.896H7.33333Z" fill="#828282"/>
</svg>
