<svg width="22" height="22" viewBox="0 0 22 22" fill="none" xmlns="http://www.w3.org/2000/svg">
<path d="M15.3542 3.26301V1.83301C15.3542 1.45717 15.0425 1.14551 14.6667 1.14551C14.2909 1.14551 13.9792 1.45717 13.9792 1.83301V3.20801H8.02088V1.83301C8.02088 1.45717 7.70921 1.14551 7.33338 1.14551C6.95755 1.14551 6.64588 1.45717 6.64588 1.83301V3.26301C4.17088 3.49217 2.97005 4.96801 2.78671 7.15884C2.76838 7.42467 2.98838 7.64467 3.24505 7.64467H18.755C19.0209 7.64467 19.2409 7.41551 19.2134 7.15884C19.03 4.96801 17.8292 3.49217 15.3542 3.26301Z" fill="#3523C3"/>
<path d="M18.3333 9.01953H3.66667C3.1625 9.01953 2.75 9.43203 2.75 9.9362V15.5829C2.75 18.3329 4.125 20.1662 7.33333 20.1662H14.6667C17.875 20.1662 19.25 18.3329 19.25 15.5829V9.9362C19.25 9.43203 18.8375 9.01953 18.3333 9.01953ZM8.4425 16.692C8.35083 16.7745 8.25 16.8387 8.14 16.8845C8.03 16.9304 7.91083 16.9579 7.79167 16.9579C7.6725 16.9579 7.55333 16.9304 7.44333 16.8845C7.33333 16.8387 7.2325 16.7745 7.14083 16.692C6.97583 16.5179 6.875 16.2795 6.875 16.0412C6.875 15.8029 6.97583 15.5645 7.14083 15.3904C7.2325 15.3079 7.33333 15.2437 7.44333 15.1979C7.66333 15.1062 7.92 15.1062 8.14 15.1979C8.25 15.2437 8.35083 15.3079 8.4425 15.3904C8.6075 15.5645 8.70833 15.8029 8.70833 16.0412C8.70833 16.2795 8.6075 16.5179 8.4425 16.692ZM8.635 13.1812C8.58917 13.2912 8.525 13.392 8.4425 13.4837C8.35083 13.5662 8.25 13.6304 8.14 13.6762C8.03 13.722 7.91083 13.7495 7.79167 13.7495C7.6725 13.7495 7.55333 13.722 7.44333 13.6762C7.33333 13.6304 7.2325 13.5662 7.14083 13.4837C7.05833 13.392 6.99417 13.2912 6.94833 13.1812C6.9025 13.0712 6.875 12.952 6.875 12.8329C6.875 12.7137 6.9025 12.5945 6.94833 12.4845C6.99417 12.3745 7.05833 12.2737 7.14083 12.182C7.2325 12.0995 7.33333 12.0354 7.44333 11.9895C7.66333 11.8979 7.92 11.8979 8.14 11.9895C8.25 12.0354 8.35083 12.0995 8.4425 12.182C8.525 12.2737 8.58917 12.3745 8.635 12.4845C8.68083 12.5945 8.70833 12.7137 8.70833 12.8329C8.70833 12.952 8.68083 13.0712 8.635 13.1812ZM11.6508 13.4837C11.5592 13.5662 11.4583 13.6304 11.3483 13.6762C11.2383 13.722 11.1192 13.7495 11 13.7495C10.8808 13.7495 10.7617 13.722 10.6517 13.6762C10.5417 13.6304 10.4408 13.5662 10.3492 13.4837C10.1842 13.3095 10.0833 13.0712 10.0833 12.8329C10.0833 12.5945 10.1842 12.3562 10.3492 12.182C10.4408 12.0995 10.5417 12.0354 10.6517 11.9895C10.8717 11.8887 11.1283 11.8887 11.3483 11.9895C11.4583 12.0354 11.5592 12.0995 11.6508 12.182C11.8158 12.3562 11.9167 12.5945 11.9167 12.8329C11.9167 13.0712 11.8158 13.3095 11.6508 13.4837Z" fill="#3523C3"/>
</svg>
