<svg width="22" height="22" viewBox="0 0 22 22" fill="none" xmlns="http://www.w3.org/2000/svg">
<path d="M7.3335 5.27051C6.95766 5.27051 6.646 4.95884 6.646 4.58301V1.83301C6.646 1.45717 6.95766 1.14551 7.3335 1.14551C7.70933 1.14551 8.021 1.45717 8.021 1.83301V4.58301C8.021 4.95884 7.70933 5.27051 7.3335 5.27051Z" fill="#3523C3"/>
<path d="M14.6665 5.27051C14.2907 5.27051 13.979 4.95884 13.979 4.58301V1.83301C13.979 1.45717 14.2907 1.14551 14.6665 1.14551C15.0423 1.14551 15.354 1.45717 15.354 1.83301V4.58301C15.354 4.95884 15.0423 5.27051 14.6665 5.27051Z" fill="#3523C3"/>
<path d="M7.79167 13.2921C7.6725 13.2921 7.55333 13.2646 7.44333 13.2188C7.32417 13.173 7.2325 13.1088 7.14083 13.0263C6.97583 12.8521 6.875 12.6229 6.875 12.3754C6.875 12.2563 6.9025 12.1371 6.94833 12.0271C6.99417 11.9171 7.05833 11.8163 7.14083 11.7246C7.2325 11.6421 7.32417 11.5779 7.44333 11.5321C7.77333 11.3946 8.18583 11.468 8.4425 11.7246C8.6075 11.8988 8.70833 12.1371 8.70833 12.3754C8.70833 12.4304 8.69917 12.4946 8.69 12.5588C8.68083 12.6138 8.6625 12.6688 8.635 12.7238C8.61666 12.7788 8.58917 12.8338 8.5525 12.8888C8.525 12.9346 8.47917 12.9804 8.4425 13.0263C8.26833 13.1913 8.03 13.2921 7.79167 13.2921Z" fill="#3523C3"/>
<path d="M11.0002 13.2913C10.881 13.2913 10.7618 13.2638 10.6518 13.218C10.5327 13.1722 10.441 13.108 10.3493 13.0255C10.1843 12.8513 10.0835 12.6221 10.0835 12.3746C10.0835 12.2555 10.111 12.1363 10.1568 12.0263C10.2027 11.9163 10.2668 11.8155 10.3493 11.7238C10.441 11.6413 10.5327 11.5771 10.6518 11.5313C10.9818 11.3846 11.3943 11.4671 11.651 11.7238C11.816 11.898 11.9168 12.1363 11.9168 12.3746C11.9168 12.4296 11.9077 12.4938 11.8985 12.558C11.8893 12.613 11.871 12.668 11.8435 12.723C11.8252 12.778 11.7977 12.833 11.761 12.888C11.7335 12.9338 11.6877 12.9796 11.651 13.0255C11.4768 13.1905 11.2385 13.2913 11.0002 13.2913Z" fill="#3523C3"/>
<path d="M14.2082 13.2913C14.089 13.2913 13.9698 13.2638 13.8598 13.218C13.7407 13.1722 13.649 13.108 13.5573 13.0255C13.5207 12.9796 13.484 12.9338 13.4473 12.888C13.4107 12.833 13.3832 12.778 13.3648 12.723C13.3373 12.668 13.319 12.613 13.3098 12.558C13.3007 12.4938 13.2915 12.4296 13.2915 12.3746C13.2915 12.1363 13.3923 11.898 13.5573 11.7238C13.649 11.6413 13.7407 11.5771 13.8598 11.5313C14.199 11.3846 14.6023 11.4671 14.859 11.7238C15.024 11.898 15.1248 12.1363 15.1248 12.3746C15.1248 12.4296 15.1157 12.4938 15.1065 12.558C15.0973 12.613 15.079 12.668 15.0515 12.723C15.0332 12.778 15.0057 12.833 14.969 12.888C14.9415 12.9338 14.8957 12.9796 14.859 13.0255C14.6848 13.1905 14.4465 13.2913 14.2082 13.2913Z" fill="#3523C3"/>
<path d="M7.79167 16.4996C7.6725 16.4996 7.55333 16.4721 7.44333 16.4263C7.33333 16.3804 7.2325 16.3163 7.14083 16.2338C6.97583 16.0596 6.875 15.8213 6.875 15.5829C6.875 15.4638 6.9025 15.3446 6.94833 15.2346C6.99417 15.1154 7.05833 15.0146 7.14083 14.9321C7.48 14.5929 8.10333 14.5929 8.4425 14.9321C8.6075 15.1063 8.70833 15.3446 8.70833 15.5829C8.70833 15.8213 8.6075 16.0596 8.4425 16.2338C8.26833 16.3988 8.03 16.4996 7.79167 16.4996Z" fill="#3523C3"/>
<path d="M11.0002 16.4996C10.7618 16.4996 10.5235 16.3988 10.3493 16.2338C10.1843 16.0596 10.0835 15.8213 10.0835 15.5829C10.0835 15.4638 10.111 15.3446 10.1568 15.2346C10.2027 15.1154 10.2668 15.0146 10.3493 14.9321C10.6885 14.5929 11.3118 14.5929 11.651 14.9321C11.7335 15.0146 11.7977 15.1154 11.8435 15.2346C11.8893 15.3446 11.9168 15.4638 11.9168 15.5829C11.9168 15.8213 11.816 16.0596 11.651 16.2338C11.4768 16.3988 11.2385 16.4996 11.0002 16.4996Z" fill="#3523C3"/>
<path d="M14.2082 16.5002C13.9698 16.5002 13.7315 16.3993 13.5573 16.2343C13.4748 16.1518 13.4107 16.051 13.3648 15.9318C13.319 15.8218 13.2915 15.7027 13.2915 15.5835C13.2915 15.4643 13.319 15.3452 13.3648 15.2352C13.4107 15.116 13.4748 15.0152 13.5573 14.9327C13.7682 14.7218 14.089 14.621 14.3823 14.6852C14.4465 14.6943 14.5015 14.7127 14.5565 14.7402C14.6115 14.7585 14.6665 14.786 14.7215 14.8227C14.7673 14.8502 14.8132 14.896 14.859 14.9327C15.024 15.1068 15.1248 15.3452 15.1248 15.5835C15.1248 15.8218 15.024 16.0602 14.859 16.2343C14.6848 16.3993 14.4465 16.5002 14.2082 16.5002Z" fill="#3523C3"/>
<path d="M18.7918 9.01953H3.2085C2.83266 9.01953 2.521 8.70786 2.521 8.33203C2.521 7.9562 2.83266 7.64453 3.2085 7.64453H18.7918C19.1677 7.64453 19.4793 7.9562 19.4793 8.33203C19.4793 8.70786 19.1677 9.01953 18.7918 9.01953Z" fill="#3523C3"/>
<path d="M14.6667 20.8538H7.33333C3.9875 20.8538 2.0625 18.9288 2.0625 15.583V7.79134C2.0625 4.44551 3.9875 2.52051 7.33333 2.52051H14.6667C18.0125 2.52051 19.9375 4.44551 19.9375 7.79134V15.583C19.9375 18.9288 18.0125 20.8538 14.6667 20.8538ZM7.33333 3.89551C4.71167 3.89551 3.4375 5.16967 3.4375 7.79134V15.583C3.4375 18.2047 4.71167 19.4788 7.33333 19.4788H14.6667C17.2883 19.4788 18.5625 18.2047 18.5625 15.583V7.79134C18.5625 5.16967 17.2883 3.89551 14.6667 3.89551H7.33333Z" fill="#3523C3"/>
</svg>
