<svg width="20" height="20" viewBox="0 0 20 20" fill="none" xmlns="http://www.w3.org/2000/svg">
<path d="M10 13.125C8.275 13.125 6.875 11.725 6.875 10C6.875 8.275 8.275 6.875 10 6.875C11.725 6.875 13.125 8.275 13.125 10C13.125 11.725 11.725 13.125 10 13.125ZM10 8.125C8.96667 8.125 8.125 8.96667 8.125 10C8.125 11.0333 8.96667 11.875 10 11.875C11.0333 11.875 11.875 11.0333 11.875 10C11.875 8.96667 11.0333 8.125 10 8.125Z" fill="#828282"/>
<path d="M12.6748 18.4913C12.4998 18.4913 12.3248 18.4663 12.1498 18.4246C11.6332 18.2829 11.1998 17.9579 10.9248 17.4996L10.8248 17.3329C10.3332 16.4829 9.65817 16.4829 9.1665 17.3329L9.07484 17.4913C8.79984 17.9579 8.3665 18.2913 7.84984 18.4246C7.32484 18.5663 6.78317 18.4913 6.32484 18.2163L4.8915 17.3913C4.38317 17.0996 4.0165 16.6246 3.85817 16.0496C3.70817 15.4746 3.78317 14.8829 4.07484 14.3746C4.3165 13.9496 4.38317 13.5663 4.2415 13.3246C4.09984 13.0829 3.7415 12.9413 3.24984 12.9413C2.03317 12.9413 1.0415 11.9496 1.0415 10.7329V9.26625C1.0415 8.04959 2.03317 7.05792 3.24984 7.05792C3.7415 7.05792 4.09984 6.91625 4.2415 6.67459C4.38317 6.43292 4.32484 6.04959 4.07484 5.62459C3.78317 5.11625 3.70817 4.51625 3.85817 3.94959C4.00817 3.37459 4.37484 2.89959 4.8915 2.60792L6.33317 1.78292C7.27484 1.22459 8.5165 1.54959 9.08317 2.50792L9.18317 2.67459C9.67484 3.52459 10.3498 3.52459 10.8415 2.67459L10.9332 2.51625C11.4998 1.54959 12.7415 1.22459 13.6915 1.79125L15.1248 2.61625C15.6332 2.90792 15.9998 3.38292 16.1582 3.95792C16.3082 4.53292 16.2332 5.12459 15.9415 5.63292C15.6998 6.05792 15.6332 6.44126 15.7748 6.68292C15.9165 6.92459 16.2748 7.06625 16.7665 7.06625C17.9832 7.06625 18.9748 8.05792 18.9748 9.27459V10.7413C18.9748 11.9579 17.9832 12.9496 16.7665 12.9496C16.2748 12.9496 15.9165 13.0913 15.7748 13.3329C15.6332 13.5746 15.6915 13.9579 15.9415 14.3829C16.2332 14.8913 16.3165 15.4913 16.1582 16.0579C16.0082 16.6329 15.6415 17.1079 15.1248 17.3996L13.6832 18.2246C13.3665 18.3996 13.0248 18.4913 12.6748 18.4913ZM9.99984 15.4079C10.7415 15.4079 11.4332 15.8746 11.9082 16.6996L11.9998 16.8579C12.0998 17.0329 12.2665 17.1579 12.4665 17.2079C12.6665 17.2579 12.8665 17.2329 13.0332 17.1329L14.4748 16.2996C14.6915 16.1746 14.8582 15.9663 14.9248 15.7163C14.9915 15.4663 14.9582 15.2079 14.8332 14.9913C14.3582 14.1746 14.2998 13.3329 14.6665 12.6913C15.0332 12.0496 15.7915 11.6829 16.7415 11.6829C17.2748 11.6829 17.6998 11.2579 17.6998 10.7246V9.25792C17.6998 8.73292 17.2748 8.29959 16.7415 8.29959C15.7915 8.29959 15.0332 7.93292 14.6665 7.29125C14.2998 6.64959 14.3582 5.80792 14.8332 4.99125C14.9582 4.77459 14.9915 4.51625 14.9248 4.26625C14.8582 4.01625 14.6998 3.81625 14.4832 3.68292L13.0415 2.85792C12.6832 2.64125 12.2082 2.76625 11.9915 3.13292L11.8998 3.29125C11.4248 4.11625 10.7332 4.58292 9.9915 4.58292C9.24984 4.58292 8.55817 4.11625 8.08317 3.29125L7.9915 3.12459C7.78317 2.77459 7.3165 2.64959 6.95817 2.85792L5.5165 3.69125C5.29984 3.81625 5.13317 4.02459 5.0665 4.27459C4.99984 4.52459 5.03317 4.78292 5.15817 4.99959C5.63317 5.81625 5.6915 6.65792 5.32484 7.29959C4.95817 7.94126 4.19984 8.30792 3.24984 8.30792C2.7165 8.30792 2.2915 8.73292 2.2915 9.26625V10.7329C2.2915 11.2579 2.7165 11.6913 3.24984 11.6913C4.19984 11.6913 4.95817 12.0579 5.32484 12.6996C5.6915 13.3413 5.63317 14.1829 5.15817 14.9996C5.03317 15.2163 4.99984 15.4746 5.0665 15.7246C5.13317 15.9746 5.2915 16.1746 5.50817 16.3079L6.94984 17.1329C7.12484 17.2413 7.33317 17.2663 7.52484 17.2163C7.72484 17.1663 7.8915 17.0329 7.99984 16.8579L8.0915 16.6996C8.5665 15.8829 9.25817 15.4079 9.99984 15.4079Z" fill="#828282"/>
</svg>
