<svg width="20" height="20" viewBox="0 0 20 20" fill="none" xmlns="http://www.w3.org/2000/svg">
<path d="M6.6665 18.5998C6.43317 18.5998 6.19149 18.5415 5.97482 18.4249C5.49982 18.1749 5.20817 17.6748 5.20817 17.1415V15.9582C2.6915 15.6999 1.0415 13.8498 1.0415 11.1998V6.19987C1.0415 3.3332 2.9665 1.4082 5.83317 1.4082H14.1665C17.0332 1.4082 18.9582 3.3332 18.9582 6.19987V11.1998C18.9582 14.0665 17.0332 15.9915 14.1665 15.9915H11.0248L7.47481 18.3582C7.23315 18.5166 6.94984 18.5998 6.6665 18.5998ZM5.83317 2.64986C3.68317 2.64986 2.2915 4.04153 2.2915 6.19153V11.1916C2.2915 13.3416 3.68317 14.7332 5.83317 14.7332C6.17484 14.7332 6.45817 15.0166 6.45817 15.3582V17.1332C6.45817 17.2416 6.52484 17.2916 6.56651 17.3166C6.60817 17.3416 6.69152 17.3666 6.78318 17.3082L10.4915 14.8416C10.5915 14.7749 10.7165 14.7332 10.8415 14.7332H14.1748C16.3248 14.7332 17.7165 13.3416 17.7165 11.1916V6.19153C17.7165 4.04153 16.3248 2.64986 14.1748 2.64986H5.83317Z" fill="#828282"/>
<path d="M10 10.0918C9.65834 10.0918 9.37501 9.80846 9.37501 9.4668V9.29183C9.37501 8.32516 10.0833 7.85015 10.35 7.66682C10.6583 7.45849 10.7583 7.31683 10.7583 7.10016C10.7583 6.68349 10.4167 6.3418 10 6.3418C9.58334 6.3418 9.2417 6.68349 9.2417 7.10016C9.2417 7.44183 8.95837 7.72516 8.6167 7.72516C8.27503 7.72516 7.9917 7.44183 7.9917 7.10016C7.9917 5.99183 8.89168 5.0918 10 5.0918C11.1083 5.0918 12.0083 5.99183 12.0083 7.10016C12.0083 8.05016 11.3084 8.52514 11.05 8.70014C10.725 8.91681 10.625 9.0585 10.625 9.29183V9.4668C10.625 9.8168 10.3417 10.0918 10 10.0918Z" fill="#828282"/>
<path d="M10 12.1665C9.65 12.1665 9.375 11.8832 9.375 11.5415C9.375 11.1998 9.65833 10.9165 10 10.9165C10.3417 10.9165 10.625 11.1998 10.625 11.5415C10.625 11.8832 10.35 12.1665 10 12.1665Z" fill="#828282"/>
</svg>
