<svg width="7" height="7" viewBox="0 0 7 7" fill="none" xmlns="http://www.w3.org/2000/svg">
<path d="M6.76643 1.01969L6.01644 0.269706C5.9302 0.183467 5.81095 0.143706 5.69019 0.164694L3.8152 0.472206C3.67721 0.493967 3.56394 0.591456 3.51971 0.724206C3.47548 0.856956 3.5092 1.00321 3.60672 1.10294L5.85672 3.42044C5.92721 3.49469 6.02547 3.53446 6.12521 3.53446C6.16047 3.53446 6.19647 3.52922 6.23247 3.51944C6.29805 3.50029 6.35713 3.46352 6.40327 3.41314C6.44942 3.36276 6.48087 3.3007 6.49421 3.23369L6.86922 1.35871C6.8813 1.2981 6.87824 1.23545 6.86031 1.17632C6.84238 1.11718 6.81013 1.06338 6.76643 1.01969ZM5.89719 2.38618L4.64394 1.09546L5.62118 0.935706L6.09294 1.40747L5.89719 2.38618ZM1.88994 3.57721C1.74369 3.43096 1.50593 3.43096 1.35968 3.57721L0.609687 4.32719C0.463438 4.47344 0.463438 4.71121 0.609687 4.85746C0.683199 4.93019 0.779176 4.96697 0.875188 4.96697C0.971199 4.96697 1.06718 4.93023 1.13995 4.85746L1.88994 4.10747C2.03619 3.96118 2.03619 3.72346 1.88994 3.57721ZM3.38995 5.07718C3.2437 4.93093 3.00594 4.93093 2.85969 5.07718L2.1097 5.82717C1.96345 5.97342 1.96345 6.21118 2.1097 6.35743C2.18027 6.42756 2.27571 6.46693 2.3752 6.46694C2.47121 6.46694 2.56719 6.43021 2.63996 6.35743L3.38995 5.60744C3.5362 5.46119 3.5362 5.22343 3.38995 5.07718ZM4.13994 2.82718C3.99369 2.68093 3.75593 2.68093 3.60968 2.82718L2.85969 3.57717C2.71344 3.72342 2.71344 3.96118 2.85969 4.10743C2.9332 4.18017 3.02918 4.21694 3.12519 4.21694C3.2212 4.21694 3.31718 4.18021 3.38995 4.10743L4.13994 3.35744C4.28619 3.21119 4.28619 2.97343 4.13994 2.82718Z" fill="#828282"/>
</svg>
