<svg width="18" height="14" viewBox="0 0 18 14" fill="none" xmlns="http://www.w3.org/2000/svg">
<path d="M16.5 5.91324V2.49999C16.5 1.4665 15.6585 0.625 14.625 0.625H3.375C2.34151 0.625 1.50001 1.4665 1.50001 2.49999V5.91324C0.64575 6.08723 0 6.84474 0 7.74998V13C0 13.207 0.168012 13.375 0.375012 13.375C0.582012 13.375 0.750023 13.207 0.750023 13V11.875H17.25V13C17.25 13.207 17.418 13.375 17.625 13.375C17.832 13.375 18 13.207 18 13V7.74998C18 6.84474 17.3542 6.08723 16.5 5.91324ZM2.25 2.49999C2.25 1.87973 2.75474 1.37499 3.375 1.37499H14.625C15.2453 1.37499 15.75 1.87973 15.75 2.49999V5.87499H14.718C14.7915 5.66873 14.8102 5.44598 14.7555 5.22699L14.3805 3.72698C14.3199 3.48348 14.1795 3.26728 13.9817 3.11286C13.784 2.95844 13.5402 2.87469 13.2892 2.87497H10.875C10.2547 2.87497 9.74999 3.3797 9.74999 3.99997V5.49998C9.74999 5.63199 9.77699 5.75722 9.819 5.87499H8.181C8.22301 5.75725 8.25001 5.63199 8.25001 5.49998V3.99997C8.25001 3.3797 7.74527 2.87497 7.12501 2.87497H4.71076C4.45987 2.87483 4.21615 2.95863 4.0184 3.11303C3.82064 3.26743 3.68023 3.48355 3.61951 3.72698L3.2445 5.22699C3.18976 5.44598 3.2085 5.66873 3.28201 5.87499H2.25V2.49999ZM13.9597 5.73099C13.9248 5.776 13.88 5.8124 13.8287 5.83736C13.7775 5.86233 13.7212 5.8752 13.6642 5.87499H10.875C10.668 5.87499 10.5 5.70698 10.5 5.49998V3.99997C10.5 3.79297 10.668 3.62495 10.875 3.62495H13.2892C13.4618 3.62495 13.611 3.74195 13.653 3.90919L14.028 5.4092C14.0565 5.52174 14.0317 5.63948 13.9597 5.73099ZM7.49925 3.99923V5.49924C7.49925 5.70624 7.33124 5.87425 7.12424 5.87425H4.33498C4.21871 5.87425 4.11071 5.82176 4.03949 5.73025C3.96826 5.63874 3.94274 5.521 3.97125 5.4085L4.34626 3.90849C4.38901 3.74199 4.53825 3.62499 4.71002 3.62425H7.12427C7.33124 3.62425 7.49925 3.79223 7.49925 3.99923ZM17.25 11.125H0.749988V10.375H17.25V11.125H17.25ZM17.25 9.625H0.749988V7.75001C0.749988 7.12975 1.25473 6.62501 1.87499 6.62501H16.125C16.7453 6.62501 17.25 7.12975 17.25 7.75001V9.625H17.25Z" fill="#828282"/>
</svg>
