<svg width="37" height="36" viewBox="0 0 37 36" fill="none" xmlns="http://www.w3.org/2000/svg">
<rect x="0.5" width="36" height="36" rx="18" fill="#FFF3D5"/>
<path d="M22.667 25.7087H14.3337C11.292 25.7087 9.54199 23.9587 9.54199 20.917V15.0837C9.54199 12.042 11.292 10.292 14.3337 10.292H22.667C25.7087 10.292 27.4587 12.042 27.4587 15.0837V20.917C27.4587 23.9587 25.7087 25.7087 22.667 25.7087ZM14.3337 11.542C11.9503 11.542 10.792 12.7003 10.792 15.0837V20.917C10.792 23.3003 11.9503 24.4587 14.3337 24.4587H22.667C25.0503 24.4587 26.2087 23.3003 26.2087 20.917V15.0837C26.2087 12.7003 25.0503 11.542 22.667 11.542H14.3337Z" fill="#DFB857"/>
<path d="M18.5 18.725C17.8 18.725 17.0916 18.5083 16.55 18.0666L13.9416 15.9833C13.675 15.7666 13.625 15.375 13.8416 15.1083C14.0583 14.8416 14.45 14.7916 14.7166 15.0083L17.325 17.0916C17.9583 17.6 19.0333 17.6 19.6666 17.0916L22.275 15.0083C22.5416 14.7916 22.9416 14.8333 23.15 15.1083C23.3666 15.375 23.325 15.775 23.05 15.9833L20.4416 18.0666C19.9083 18.5083 19.2 18.725 18.5 18.725Z" fill="#DFB857"/>
</svg>
