<svg width="37" height="36" viewBox="0 0 37 36" fill="none" xmlns="http://www.w3.org/2000/svg">
<rect x="0.5" width="36" height="36" rx="18" fill="#4CA4E3" fill-opacity="0.18"/>
<path d="M18.5003 27.0087C17.9253 27.0087 17.3837 26.717 17.0003 26.2087L15.7503 24.542C15.7253 24.5087 15.6253 24.467 15.5837 24.4587H15.167C11.692 24.4587 9.54199 23.517 9.54199 18.8337V14.667C9.54199 10.9837 11.4837 9.04199 15.167 9.04199H21.8337C25.517 9.04199 27.4587 10.9837 27.4587 14.667V18.8337C27.4587 22.517 25.517 24.4587 21.8337 24.4587H21.417C21.3503 24.4587 21.292 24.492 21.2503 24.542L20.0003 26.2087C19.617 26.717 19.0753 27.0087 18.5003 27.0087ZM15.167 10.292C12.1837 10.292 10.792 11.6837 10.792 14.667V18.8337C10.792 22.6003 12.0837 23.2087 15.167 23.2087H15.5837C16.0087 23.2087 16.492 23.4503 16.7503 23.792L18.0003 25.4587C18.292 25.842 18.7087 25.842 19.0003 25.4587L20.2503 23.792C20.5253 23.4253 20.9587 23.2087 21.417 23.2087H21.8337C24.817 23.2087 26.2087 21.817 26.2087 18.8337V14.667C26.2087 11.6837 24.817 10.292 21.8337 10.292H15.167Z" fill="#4CA4E3"/>
<path d="M18.5003 17.9997C18.0337 17.9997 17.667 17.6247 17.667 17.1663C17.667 16.708 18.042 16.333 18.5003 16.333C18.9587 16.333 19.3337 16.708 19.3337 17.1663C19.3337 17.6247 18.967 17.9997 18.5003 17.9997Z" fill="#4CA4E3"/>
<path d="M15.1663 17.9997C14.6997 17.9997 14.333 17.6247 14.333 17.1663C14.333 16.708 14.708 16.333 15.1663 16.333C15.6247 16.333 15.9997 16.708 15.9997 17.1663C15.9997 17.6247 15.633 17.9997 15.1663 17.9997Z" fill="#4CA4E3"/>
</svg>
