<svg width="18" height="11" viewBox="0 0 18 11" fill="none" xmlns="http://www.w3.org/2000/svg">
<path d="M15 5C14.175 5 13.5 4.325 13.5 3.5C13.5 2.675 14.175 2 15 2C15.825 2 16.5 2.675 16.5 3.5C16.5 4.325 15.825 5 15 5ZM15 2.75C14.55 2.75 14.25 3.05 14.25 3.5C14.25 3.95 14.55 4.25 15 4.25C15.45 4.25 15.75 3.95 15.75 3.5C15.75 3.05 15.45 2.75 15 2.75ZM17.625 8.75C17.4 8.75 17.25 8.6 17.25 8.375V7.625C17.25 7.025 16.725 6.5 16.125 6.5H13.875C13.65 6.5 13.5 6.35 13.5 6.125C13.5 5.9 13.65 5.75 13.875 5.75H16.125C17.175 5.75 18 6.575 18 7.625V8.375C18 8.6 17.85 8.75 17.625 8.75ZM3 5C2.175 5 1.5 4.325 1.5 3.5C1.5 2.675 2.175 2 3 2C3.825 2 4.5 2.675 4.5 3.5C4.5 4.325 3.825 5 3 5ZM3 2.75C2.55 2.75 2.25 3.05 2.25 3.5C2.25 3.95 2.55 4.25 3 4.25C3.45 4.25 3.75 3.95 3.75 3.5C3.75 3.05 3.45 2.75 3 2.75ZM0.375 8.75C0.15 8.75 0 8.6 0 8.375V7.625C0 6.575 0.825 5.75 1.875 5.75H4.125C4.35 5.75 4.5 5.9 4.5 6.125C4.5 6.35 4.35 6.5 4.125 6.5H1.875C1.275 6.5 0.75 7.025 0.75 7.625V8.375C0.75 8.6 0.6 8.75 0.375 8.75ZM9 5.375C7.725 5.375 6.75 4.4 6.75 3.125C6.75 1.85 7.725 0.875 9 0.875C10.275 0.875 11.25 1.85 11.25 3.125C11.25 4.4 10.275 5.375 9 5.375ZM9 1.625C8.175 1.625 7.5 2.3 7.5 3.125C7.5 3.95 8.175 4.625 9 4.625C9.825 4.625 10.5 3.95 10.5 3.125C10.5 2.3 9.825 1.625 9 1.625ZM12.75 10.25C12.525 10.25 12.375 10.1 12.375 9.875V8.375C12.375 7.775 11.85 7.25 11.25 7.25H6.75C6.15 7.25 5.625 7.775 5.625 8.375V9.875C5.625 10.1 5.475 10.25 5.25 10.25C5.025 10.25 4.875 10.1 4.875 9.875V8.375C4.875 7.325 5.7 6.5 6.75 6.5H11.25C12.3 6.5 13.125 7.325 13.125 8.375V9.875C13.125 10.1 12.975 10.25 12.75 10.25Z" fill="#828282"/>
</svg>
