<svg width="37" height="36" viewBox="0 0 37 36" fill="none" xmlns="http://www.w3.org/2000/svg">
<rect x="0.5" width="36" height="36" rx="18" fill="#D5FFEA"/>
<path d="M23.042 26.9587C22.1003 26.9587 21.1087 26.7337 20.0837 26.3003C19.0837 25.8753 18.0753 25.292 17.092 24.5837C16.117 23.867 15.1753 23.067 14.2837 22.192C13.4003 21.3003 12.6003 20.3587 11.892 19.392C11.1753 18.392 10.6003 17.392 10.192 16.4253C9.75866 15.392 9.54199 14.392 9.54199 13.4503C9.54199 12.8003 9.65866 12.1837 9.88366 11.6087C10.117 11.017 10.492 10.467 11.0003 9.99199C11.642 9.35866 12.3753 9.04199 13.1587 9.04199C13.4837 9.04199 13.817 9.11699 14.1003 9.25033C14.4253 9.40033 14.7003 9.62533 14.9003 9.92533L16.8337 12.6503C17.0087 12.892 17.142 13.1253 17.2337 13.3587C17.342 13.6087 17.4003 13.8587 17.4003 14.1003C17.4003 14.417 17.3087 14.7253 17.1337 15.017C17.0087 15.242 16.817 15.4837 16.5753 15.7253L16.0087 16.317C16.017 16.342 16.0253 16.3587 16.0337 16.3753C16.1337 16.5503 16.3337 16.8503 16.717 17.3003C17.1253 17.767 17.5087 18.192 17.892 18.5837C18.3837 19.067 18.792 19.4503 19.1753 19.767C19.6503 20.167 19.9587 20.367 20.142 20.4587L20.1253 20.5003L20.7337 19.9003C20.992 19.642 21.242 19.4503 21.4837 19.3253C21.942 19.042 22.5253 18.992 23.1087 19.2337C23.3253 19.3253 23.5587 19.4503 23.8087 19.6253L26.5753 21.592C26.8837 21.8003 27.1087 22.067 27.242 22.3837C27.367 22.7003 27.4253 22.992 27.4253 23.2837C27.4253 23.6837 27.3337 24.0837 27.1587 24.4587C26.9837 24.8337 26.767 25.1587 26.492 25.4587C26.017 25.9837 25.5003 26.3587 24.9003 26.6003C24.3253 26.8337 23.7003 26.9587 23.042 26.9587ZM13.1587 10.292C12.7003 10.292 12.2753 10.492 11.867 10.892C11.4837 11.2503 11.217 11.642 11.0503 12.067C10.8753 12.5003 10.792 12.9587 10.792 13.4503C10.792 14.2253 10.9753 15.067 11.342 15.9337C11.717 16.817 12.242 17.7337 12.9087 18.6503C13.5753 19.567 14.3337 20.4587 15.167 21.3003C16.0003 22.1253 16.9003 22.892 17.8253 23.567C18.7253 24.2253 19.6503 24.7587 20.567 25.142C21.992 25.7503 23.3253 25.892 24.4253 25.4337C24.8503 25.2587 25.2253 24.992 25.567 24.6087C25.7587 24.4003 25.9087 24.1753 26.0337 23.9087C26.1337 23.7003 26.1837 23.4837 26.1837 23.267C26.1837 23.1337 26.1587 23.0003 26.092 22.8503C26.067 22.8003 26.017 22.7087 25.8587 22.6003L23.092 20.6337C22.9253 20.517 22.7753 20.4337 22.6337 20.3753C22.4503 20.3003 22.3753 20.2253 22.092 20.4003C21.9253 20.4837 21.7753 20.6087 21.6087 20.7753L20.9753 21.4003C20.6503 21.717 20.1503 21.792 19.767 21.6503L19.542 21.5503C19.2003 21.367 18.8003 21.0837 18.3587 20.7087C17.9587 20.367 17.5253 19.967 17.0003 19.4503C16.592 19.0337 16.1837 18.592 15.7587 18.1003C15.367 17.642 15.0837 17.2503 14.9087 16.9253L14.8087 16.6753C14.7587 16.4837 14.742 16.3753 14.742 16.2587C14.742 15.9587 14.8503 15.692 15.0587 15.4837L15.6837 14.8337C15.8503 14.667 15.9753 14.5087 16.0587 14.367C16.1253 14.2587 16.1503 14.167 16.1503 14.0837C16.1503 14.017 16.1253 13.917 16.0837 13.817C16.0253 13.6837 15.9337 13.5337 15.817 13.3753L13.8837 10.642C13.8003 10.5253 13.7003 10.442 13.5753 10.3837C13.442 10.3253 13.3003 10.292 13.1587 10.292ZM20.1253 20.5087L19.992 21.0753L20.217 20.492C20.1753 20.4837 20.142 20.492 20.1253 20.5087Z" fill="#21BF70"/>
</svg>
