<svg width="132" height="21" viewBox="0 0 132 21" fill="none" xmlns="http://www.w3.org/2000/svg">
<path d="M14.7171 19.3913C14.2754 19.3913 13.7088 19.2496 13.0004 18.8329L10.5088 17.3579C10.2504 17.2079 9.75042 17.2079 9.50042 17.3579L7.00042 18.8329C5.52542 19.7079 4.65876 19.3579 4.26709 19.0746C3.88376 18.7913 3.28376 18.0663 3.67542 16.3996L4.26709 13.8413C4.33376 13.5746 4.20042 13.1163 4.00042 12.9163L1.93376 10.8496C0.900424 9.81628 0.983757 8.93294 1.12542 8.49961C1.26709 8.06628 1.71709 7.29961 3.15042 7.05794L5.80876 6.61628C6.05876 6.57461 6.41709 6.30794 6.52542 6.08294L8.00042 3.14128C8.66709 1.79961 9.54209 1.59961 10.0004 1.59961C10.4588 1.59961 11.3338 1.79961 12.0004 3.14128L13.4671 6.07461C13.5838 6.29961 13.9421 6.56628 14.1921 6.60794L16.8504 7.04961C18.2921 7.29128 18.7421 8.05794 18.8754 8.49128C19.0088 8.92461 19.0921 9.80794 18.0671 10.8413L16.0004 12.9163C15.8004 13.1163 15.6754 13.5663 15.7338 13.8413L16.3254 16.3996C16.7088 18.0663 16.1171 18.7913 15.7338 19.0746C15.5254 19.2246 15.1921 19.3913 14.7171 19.3913Z" fill="url(#paint0_linear_466_30332)"/>
<path d="M42.7171 19.3913C42.2754 19.3913 41.7088 19.2496 41.0004 18.8329L38.5088 17.3579C38.2504 17.2079 37.7504 17.2079 37.5004 17.3579L35.0004 18.8329C33.5254 19.7079 32.6588 19.3579 32.2671 19.0746C31.8838 18.7913 31.2838 18.0663 31.6754 16.3996L32.2671 13.8413C32.3338 13.5746 32.2004 13.1163 32.0004 12.9163L29.9338 10.8496C28.9004 9.81628 28.9838 8.93294 29.1254 8.49961C29.2671 8.06628 29.7171 7.29961 31.1504 7.05794L33.8088 6.61628C34.0588 6.57461 34.4171 6.30794 34.5254 6.08294L36.0004 3.14128C36.6671 1.79961 37.5421 1.59961 38.0004 1.59961C38.4588 1.59961 39.3338 1.79961 40.0004 3.14128L41.4671 6.07461C41.5838 6.29961 41.9421 6.56628 42.1921 6.60794L44.8504 7.04961C46.2921 7.29128 46.7421 8.05794 46.8754 8.49128C47.0088 8.92461 47.0921 9.80794 46.0671 10.8413L44.0004 12.9163C43.8004 13.1163 43.6754 13.5663 43.7338 13.8413L44.3254 16.3996C44.7088 18.0663 44.1171 18.7913 43.7338 19.0746C43.5254 19.2246 43.1921 19.3913 42.7171 19.3913Z" fill="url(#paint1_linear_466_30332)"/>
<path d="M70.7171 19.3913C70.2754 19.3913 69.7088 19.2496 69.0004 18.8329L66.5088 17.3579C66.2504 17.2079 65.7504 17.2079 65.5004 17.3579L63.0004 18.8329C61.5254 19.7079 60.6588 19.3579 60.2671 19.0746C59.8838 18.7913 59.2838 18.0663 59.6754 16.3996L60.2671 13.8413C60.3338 13.5746 60.2004 13.1163 60.0004 12.9163L57.9338 10.8496C56.9004 9.81628 56.9838 8.93294 57.1254 8.49961C57.2671 8.06628 57.7171 7.29961 59.1504 7.05794L61.8088 6.61628C62.0588 6.57461 62.4171 6.30794 62.5254 6.08294L64.0004 3.14128C64.6671 1.79961 65.5421 1.59961 66.0004 1.59961C66.4588 1.59961 67.3338 1.79961 68.0004 3.14128L69.4671 6.07461C69.5838 6.29961 69.9421 6.56628 70.1921 6.60794L72.8504 7.04961C74.2921 7.29128 74.7421 8.05794 74.8754 8.49128C75.0088 8.92461 75.0921 9.80794 74.0671 10.8413L72.0004 12.9163C71.8004 13.1163 71.6754 13.5663 71.7338 13.8413L72.3254 16.3996C72.7088 18.0663 72.1171 18.7913 71.7338 19.0746C71.5254 19.2246 71.1921 19.3913 70.7171 19.3913Z" fill="url(#paint2_linear_466_30332)"/>
<path d="M98.7171 19.3913C98.2754 19.3913 97.7088 19.2496 97.0004 18.8329L94.5088 17.3579C94.2504 17.2079 93.7504 17.2079 93.5004 17.3579L91.0004 18.8329C89.5254 19.7079 88.6588 19.3579 88.2671 19.0746C87.8838 18.7913 87.2838 18.0663 87.6754 16.3996L88.2671 13.8413C88.3338 13.5746 88.2004 13.1163 88.0004 12.9163L85.9338 10.8496C84.9004 9.81628 84.9838 8.93294 85.1254 8.49961C85.2671 8.06628 85.7171 7.29961 87.1504 7.05794L89.8088 6.61628C90.0588 6.57461 90.4171 6.30794 90.5254 6.08294L92.0004 3.14128C92.6671 1.79961 93.5421 1.59961 94.0004 1.59961C94.4588 1.59961 95.3338 1.79961 96.0004 3.14128L97.4671 6.07461C97.5838 6.29961 97.9421 6.56628 98.1921 6.60794L100.85 7.04961C102.292 7.29128 102.742 8.05794 102.875 8.49128C103.009 8.92461 103.092 9.80794 102.067 10.8413L100 12.9163C99.8004 13.1163 99.6754 13.5663 99.7338 13.8413L100.325 16.3996C100.709 18.0663 100.117 18.7913 99.7338 19.0746C99.5254 19.2246 99.1921 19.3913 98.7171 19.3913Z" fill="#E0E0E0"/>
<path d="M126.717 19.3913C126.275 19.3913 125.709 19.2496 125 18.8329L122.509 17.3579C122.25 17.2079 121.75 17.2079 121.5 17.3579L119 18.8329C117.525 19.7079 116.659 19.3579 116.267 19.0746C115.884 18.7913 115.284 18.0663 115.675 16.3996L116.267 13.8413C116.334 13.5746 116.2 13.1163 116 12.9163L113.934 10.8496C112.9 9.81628 112.984 8.93294 113.125 8.49961C113.267 8.06628 113.717 7.29961 115.15 7.05794L117.809 6.61628C118.059 6.57461 118.417 6.30794 118.525 6.08294L120 3.14128C120.667 1.79961 121.542 1.59961 122 1.59961C122.459 1.59961 123.334 1.79961 124 3.14128L125.467 6.07461C125.584 6.29961 125.942 6.56628 126.192 6.60794L128.85 7.04961C130.292 7.29128 130.742 8.05794 130.875 8.49128C131.009 8.92461 131.092 9.80794 130.067 10.8413L128 12.9163C127.8 13.1163 127.675 13.5663 127.734 13.8413L128.325 16.3996C128.709 18.0663 128.117 18.7913 127.734 19.0746C127.525 19.2246 127.192 19.3913 126.717 19.3913Z" fill="#E0E0E0"/>
<defs>
<linearGradient id="paint0_linear_466_30332" x1="2.50033" y1="2.99976" x2="15.8337" y2="19.2498" gradientUnits="userSpaceOnUse">
<stop stop-color="#F5E86A"/>
<stop offset="1" stop-color="#E6D11D"/>
</linearGradient>
<linearGradient id="paint1_linear_466_30332" x1="30.5003" y1="2.99976" x2="43.8337" y2="19.2498" gradientUnits="userSpaceOnUse">
<stop stop-color="#F5E86A"/>
<stop offset="1" stop-color="#E6D11D"/>
</linearGradient>
<linearGradient id="paint2_linear_466_30332" x1="58.5003" y1="2.99976" x2="71.8337" y2="19.2498" gradientUnits="userSpaceOnUse">
<stop stop-color="#F5E86A"/>
<stop offset="1" stop-color="#E6D11D"/>
</linearGradient>
</defs>
</svg>
