<svg width="18" height="18" viewBox="0 0 18 18" fill="none" xmlns="http://www.w3.org/2000/svg">
<path d="M13.7171 17.8913C13.2754 17.8913 12.7088 17.7496 12.0004 17.3329L9.50876 15.8579C9.25042 15.7079 8.75042 15.7079 8.50042 15.8579L6.00042 17.3329C4.52542 18.2079 3.65876 17.8579 3.26709 17.5746C2.88376 17.2913 2.28376 16.5663 2.67542 14.8996L3.26709 12.3413C3.33376 12.0746 3.20042 11.6163 3.00042 11.4163L0.933757 9.34961C-0.0995764 8.31628 -0.016243 7.43294 0.125424 6.99961C0.26709 6.56628 0.71709 5.79961 2.15042 5.55794L4.80876 5.11628C5.05876 5.07461 5.41709 4.80794 5.52542 4.58294L7.00042 1.64128C7.66709 0.299609 8.54209 0.0996094 9.00042 0.0996094C9.45876 0.0996094 10.3338 0.299609 11.0004 1.64128L12.4671 4.57461C12.5838 4.79961 12.9421 5.06628 13.1921 5.10794L15.8504 5.54961C17.2921 5.79128 17.7421 6.55794 17.8754 6.99128C18.0088 7.42461 18.0921 8.30794 17.0671 9.34128L15.0004 11.4163C14.8004 11.6163 14.6754 12.0663 14.7338 12.3413L15.3254 14.8996C15.7088 16.5663 15.1171 17.2913 14.7338 17.5746C14.5254 17.7246 14.1921 17.8913 13.7171 17.8913Z" fill="url(#paint0_linear_466_30459)"/>
<defs>
<linearGradient id="paint0_linear_466_30459" x1="1.50033" y1="1.49976" x2="14.8337" y2="17.7498" gradientUnits="userSpaceOnUse">
<stop offset="0.0557568" stop-color="#FFF177"/>
<stop offset="0.398694" stop-color="#E6BE24"/>
<stop offset="0.989556" stop-color="#F8AD3A"/>
</linearGradient>
</defs>
</svg>
